<svg id="svg" xmlns="http://www.w3.org/2000/svg" xmlns:xlink="http://www.w3.org/1999/xlink" width="400" height="102.73224043715847" viewBox="0, 0, 400,102.73224043715847" version="1.1"><g id="svgg"><path id="path0" d="M60.458 2.776 C 60.115 2.919,59.833 3.107,59.833 3.194 C 59.833 3.282,59.768 3.312,59.688 3.263 C 59.494 3.143,58.866 3.751,58.250 4.655 L 57.750 5.388 57.704 15.863 L 57.657 26.337 57.204 26.229 C 56.954 26.169,56.675 26.066,56.583 25.998 C 56.492 25.931,56.285 25.897,56.125 25.923 C 55.965 25.949,55.833 25.909,55.833 25.833 C 55.833 25.758,55.533 25.645,55.167 25.583 C 54.800 25.521,54.500 25.394,54.500 25.299 C 54.500 25.205,54.350 25.167,54.167 25.215 C 53.983 25.263,53.833 25.234,53.833 25.151 C 53.833 25.068,53.688 25.000,53.511 25.000 C 53.333 25.000,52.977 24.913,52.719 24.806 C 52.461 24.699,52.212 24.601,52.167 24.588 C 51.345 24.356,50.064 23.900,50.000 23.816 C 49.954 23.756,49.485 23.611,48.958 23.494 C 48.431 23.376,48.000 23.208,48.000 23.121 C 48.000 23.033,47.854 22.999,47.675 23.046 C 47.496 23.093,47.327 23.071,47.300 22.997 C 47.272 22.924,47.002 22.825,46.700 22.778 C 46.397 22.731,46.058 22.618,45.947 22.525 C 45.836 22.433,45.372 22.271,44.914 22.165 C 44.457 22.059,43.933 21.902,43.750 21.817 C 43.567 21.732,42.929 21.519,42.333 21.343 C 41.737 21.167,40.800 20.890,40.250 20.728 C 39.700 20.565,39.195 20.354,39.128 20.258 C 39.060 20.162,39.004 20.134,39.003 20.196 C 39.001 20.258,38.608 20.170,38.128 20.001 C 37.649 19.833,37.187 19.737,37.102 19.790 C 37.018 19.842,36.996 19.807,37.055 19.712 C 37.120 19.608,36.653 19.407,35.872 19.202 C 35.163 19.017,34.194 18.716,33.718 18.534 C 33.242 18.352,32.811 18.245,32.760 18.296 C 32.709 18.347,32.667 18.317,32.667 18.230 C 32.667 18.143,32.535 18.062,32.375 18.051 C 31.963 18.021,30.600 17.631,30.500 17.514 C 30.412 17.411,30.334 17.387,29.208 17.115 C 28.819 17.021,28.500 16.881,28.500 16.805 C 28.500 16.729,28.349 16.667,28.164 16.667 C 27.718 16.667,26.500 16.282,26.500 16.141 C 26.500 16.025,25.210 15.763,25.120 15.861 C 25.092 15.892,24.864 15.782,24.613 15.618 C 24.362 15.454,24.066 15.372,23.954 15.436 C 23.842 15.501,23.808 15.489,23.880 15.411 C 24.003 15.275,22.790 14.850,22.083 14.782 C 21.900 14.764,21.705 14.689,21.650 14.614 C 21.595 14.539,21.445 14.457,21.317 14.432 C 20.077 14.191,19.704 14.087,19.417 13.904 C 19.233 13.787,18.802 13.640,18.458 13.577 C 18.115 13.514,17.833 13.388,17.833 13.295 C 17.833 13.203,17.648 13.163,17.422 13.206 C 17.197 13.250,16.990 13.225,16.964 13.152 C 16.938 13.079,16.704 12.981,16.444 12.935 C 16.184 12.888,15.877 12.772,15.762 12.677 C 15.647 12.581,15.499 12.556,15.434 12.622 C 15.369 12.687,15.263 12.666,15.199 12.576 C 15.092 12.423,13.854 12.008,13.375 11.964 C 13.260 11.953,13.167 11.894,13.167 11.833 C 13.167 11.772,13.073 11.714,12.958 11.703 C 12.324 11.645,11.167 11.283,11.167 11.143 C 11.167 11.054,11.097 11.023,11.012 11.076 C 10.926 11.129,10.815 11.106,10.765 11.025 C 10.715 10.943,10.372 10.829,10.004 10.770 C 9.635 10.711,9.333 10.600,9.333 10.523 C 9.333 10.322,7.079 10.286,6.720 10.481 C 6.553 10.572,6.216 10.689,5.970 10.740 C 5.724 10.792,5.411 10.946,5.274 11.084 C 5.136 11.221,4.969 11.333,4.902 11.333 C 4.702 11.333,3.667 12.564,3.667 12.802 C 3.667 12.921,3.595 12.975,3.506 12.921 C 3.257 12.766,3.045 13.791,3.040 15.179 C 3.034 16.642,3.144 17.367,3.350 17.239 C 3.431 17.190,3.458 17.250,3.411 17.372 C 3.364 17.495,3.477 17.758,3.663 17.957 C 3.848 18.156,4.000 18.357,4.000 18.402 C 4.000 18.776,5.332 19.689,6.333 20.002 C 6.746 20.131,7.121 20.288,7.167 20.352 C 7.212 20.415,7.475 20.504,7.750 20.550 C 8.717 20.710,9.833 21.041,9.833 21.168 C 9.833 21.238,10.115 21.349,10.458 21.413 C 10.802 21.478,11.398 21.673,11.783 21.848 C 12.167 22.023,12.617 22.167,12.783 22.168 C 12.948 22.168,13.297 22.280,13.559 22.417 C 13.821 22.553,14.102 22.623,14.184 22.573 C 14.266 22.522,14.333 22.551,14.333 22.638 C 14.333 22.725,14.672 22.846,15.087 22.908 C 15.574 22.982,15.800 23.086,15.726 23.206 C 15.654 23.322,15.708 23.353,15.873 23.290 C 16.017 23.235,16.185 23.241,16.248 23.303 C 16.310 23.366,16.411 23.420,16.472 23.424 C 16.960 23.457,17.833 23.707,17.833 23.814 C 17.833 23.886,18.433 24.083,19.167 24.250 C 19.900 24.417,20.500 24.607,20.500 24.672 C 20.500 24.737,20.950 24.878,21.500 24.987 C 22.050 25.095,22.500 25.267,22.500 25.369 C 22.500 25.472,22.547 25.508,22.605 25.450 C 22.663 25.392,22.839 25.414,22.996 25.498 C 23.153 25.582,23.494 25.689,23.752 25.736 C 24.011 25.783,24.273 25.902,24.333 26.000 C 24.394 26.098,24.569 26.130,24.722 26.071 C 24.875 26.012,25.000 26.043,25.000 26.139 C 25.000 26.234,25.356 26.364,25.792 26.427 C 26.227 26.490,26.696 26.636,26.833 26.753 C 26.971 26.869,27.533 27.061,28.083 27.180 C 28.633 27.299,29.121 27.446,29.167 27.507 C 29.212 27.568,29.662 27.714,30.167 27.832 C 30.671 27.949,31.271 28.138,31.500 28.253 C 31.729 28.367,32.236 28.514,32.626 28.578 C 33.016 28.643,33.299 28.755,33.254 28.826 C 33.210 28.898,33.622 29.051,34.170 29.167 C 34.718 29.284,35.167 29.456,35.167 29.551 C 35.167 29.645,35.216 29.673,35.276 29.613 C 35.337 29.552,35.479 29.580,35.592 29.674 C 35.705 29.768,35.862 29.830,35.941 29.813 C 36.088 29.779,36.342 29.862,37.333 30.266 C 37.654 30.397,38.142 30.532,38.417 30.566 C 39.004 30.639,39.546 30.837,39.675 31.027 C 39.726 31.101,39.988 31.193,40.258 31.230 C 41.155 31.353,41.833 31.540,41.833 31.665 C 41.833 31.732,42.283 31.883,42.833 32.000 C 43.383 32.117,43.833 32.283,43.833 32.370 C 43.833 32.457,43.927 32.496,44.042 32.458 C 44.287 32.376,45.775 32.875,46.022 33.122 C 46.138 33.238,46.033 33.347,45.693 33.466 C 45.419 33.561,45.151 33.596,45.098 33.542 C 45.044 33.488,45.000 33.522,45.000 33.616 C 45.000 33.711,44.550 33.883,44.000 34.000 C 43.450 34.117,43.000 34.273,43.000 34.347 C 43.000 34.420,42.850 34.452,42.667 34.417 C 42.483 34.381,42.333 34.417,42.333 34.495 C 42.333 34.573,42.015 34.690,41.625 34.754 C 41.235 34.819,40.729 34.963,40.500 35.076 C 39.887 35.377,37.447 36.167,37.130 36.167 C 36.980 36.167,36.739 36.285,36.595 36.429 C 36.451 36.573,36.333 36.653,36.333 36.607 C 36.333 36.561,36.090 36.598,35.792 36.689 C 35.046 36.917,34.799 36.972,34.448 36.987 C 34.283 36.994,34.191 37.071,34.245 37.158 C 34.298 37.245,34.190 37.287,34.004 37.251 C 33.819 37.215,33.667 37.241,33.667 37.309 C 33.667 37.376,33.217 37.531,32.667 37.653 C 32.117 37.775,31.667 37.941,31.667 38.021 C 31.667 38.101,31.477 38.167,31.245 38.167 C 31.013 38.167,30.569 38.273,30.258 38.402 C 29.948 38.532,29.650 38.595,29.597 38.541 C 29.544 38.488,29.500 38.523,29.500 38.618 C 29.500 38.714,29.055 38.891,28.510 39.011 C 27.966 39.132,27.549 39.278,27.585 39.337 C 27.621 39.395,27.167 39.538,26.575 39.656 C 25.984 39.773,25.500 39.924,25.500 39.992 C 25.500 40.059,25.069 40.208,24.542 40.324 C 24.015 40.439,23.358 40.636,23.083 40.760 C 22.808 40.884,22.208 41.076,21.750 41.186 C 21.292 41.297,20.879 41.434,20.833 41.491 C 20.787 41.548,20.337 41.696,19.833 41.821 C 19.329 41.945,18.769 42.149,18.588 42.273 C 18.407 42.398,18.093 42.500,17.889 42.500 C 17.686 42.500,17.475 42.572,17.421 42.659 C 17.367 42.747,17.220 42.779,17.095 42.731 C 16.970 42.683,16.818 42.724,16.757 42.822 C 16.697 42.920,16.537 43.000,16.401 43.000 C 16.266 43.000,15.877 43.124,15.536 43.276 C 15.196 43.427,14.817 43.535,14.696 43.515 C 14.575 43.496,14.387 43.551,14.279 43.638 C 14.172 43.725,13.652 43.892,13.125 44.008 C 12.598 44.124,12.167 44.273,12.167 44.337 C 12.167 44.402,11.698 44.552,11.125 44.672 C 10.552 44.792,10.046 44.933,10.000 44.986 C 9.890 45.114,7.400 45.944,6.707 46.084 C 6.381 46.150,6.208 46.265,6.274 46.373 C 6.335 46.471,6.310 46.505,6.219 46.449 C 5.842 46.216,3.667 47.852,3.667 48.369 C 3.667 48.454,3.560 48.631,3.429 48.762 C 3.124 49.066,2.938 50.544,3.060 51.692 C 3.194 52.960,3.204 53.000,3.389 53.000 C 3.481 53.000,3.510 53.045,3.454 53.101 C 3.399 53.157,3.499 53.358,3.677 53.549 C 3.855 53.740,4.000 53.995,4.000 54.115 C 4.000 54.235,4.080 54.333,4.179 54.333 C 4.409 54.333,4.845 54.767,4.730 54.882 C 4.681 54.930,4.910 55.066,5.238 55.185 C 5.565 55.303,5.833 55.465,5.833 55.545 C 5.833 55.624,5.993 55.639,6.188 55.577 C 6.417 55.504,6.503 55.526,6.433 55.640 C 6.328 55.809,7.012 56.011,8.135 56.141 C 8.255 56.155,8.306 56.244,8.247 56.337 C 8.189 56.431,8.204 56.491,8.279 56.470 C 8.508 56.407,10.167 56.888,10.167 57.017 C 10.167 57.139,11.452 57.409,11.547 57.306 C 11.575 57.275,11.784 57.372,12.012 57.522 C 12.240 57.671,12.856 57.889,13.380 58.006 C 13.904 58.124,14.333 58.283,14.333 58.360 C 14.333 58.437,14.390 58.487,14.458 58.471 C 14.630 58.430,16.007 58.810,16.417 59.010 C 16.600 59.100,16.900 59.208,17.083 59.250 C 17.267 59.292,17.773 59.409,18.208 59.510 C 18.644 59.611,19.000 59.763,19.000 59.847 C 19.000 59.931,19.056 59.986,19.125 59.970 C 19.299 59.928,20.896 60.433,21.340 60.670 C 21.640 60.831,21.682 60.825,21.568 60.642 C 21.480 60.498,21.590 60.522,21.876 60.708 C 22.121 60.869,22.530 61.001,22.786 61.003 C 23.085 61.004,23.175 61.053,23.039 61.139 C 22.907 61.223,23.218 61.346,23.859 61.465 C 24.427 61.571,24.945 61.744,25.011 61.851 C 25.085 61.971,25.312 62.003,25.607 61.934 C 25.957 61.853,26.017 61.868,25.833 61.992 C 25.627 62.132,25.649 62.166,25.958 62.185 C 26.165 62.198,26.390 62.226,26.458 62.248 C 26.527 62.269,26.827 62.344,27.125 62.414 C 27.423 62.484,27.667 62.594,27.667 62.657 C 27.667 62.720,28.154 62.869,28.749 62.987 C 29.344 63.106,29.790 63.269,29.739 63.351 C 29.688 63.433,29.820 63.511,30.032 63.525 C 30.736 63.572,30.809 63.587,30.933 63.710 C 31.000 63.778,31.193 63.833,31.361 63.833 C 31.529 63.833,31.667 63.895,31.667 63.970 C 31.667 64.046,32.154 64.209,32.750 64.333 C 33.346 64.458,33.833 64.626,33.833 64.708 C 33.833 64.789,33.983 64.808,34.167 64.750 C 34.358 64.689,34.500 64.720,34.500 64.822 C 34.500 64.920,34.556 64.990,34.625 64.978 C 34.887 64.931,35.833 65.214,35.833 65.339 C 35.833 65.412,36.019 65.450,36.245 65.425 C 36.472 65.401,36.621 65.439,36.576 65.511 C 36.532 65.583,36.909 65.728,37.414 65.833 C 37.920 65.938,38.333 66.093,38.333 66.178 C 38.333 66.264,38.485 66.333,38.669 66.333 C 39.154 66.333,40.333 66.724,40.333 66.884 C 40.333 66.959,40.408 66.973,40.500 66.917 C 40.592 66.860,40.760 66.872,40.875 66.944 C 41.094 67.081,41.124 67.089,41.917 67.251 C 42.192 67.307,42.580 67.459,42.780 67.589 C 42.980 67.719,43.448 67.874,43.822 67.934 C 44.195 67.994,44.500 68.096,44.500 68.161 C 44.500 68.227,44.913 68.373,45.417 68.485 C 46.258 68.674,46.679 69.000,46.081 69.000 C 45.684 69.000,44.500 69.401,44.500 69.535 C 44.500 69.602,44.387 69.613,44.248 69.559 C 44.109 69.506,43.903 69.538,43.790 69.629 C 43.676 69.721,43.152 69.892,42.625 70.008 C 42.098 70.124,41.667 70.274,41.667 70.341 C 41.667 70.408,41.460 70.502,41.208 70.551 C 40.358 70.717,40.177 70.768,40.072 70.873 C 40.014 70.930,39.862 70.937,39.734 70.887 C 39.605 70.838,39.500 70.870,39.500 70.959 C 39.500 71.048,39.052 71.216,38.504 71.333 C 37.956 71.449,37.543 71.601,37.585 71.670 C 37.628 71.739,37.458 71.834,37.207 71.881 C 36.302 72.050,35.962 72.157,35.733 72.347 C 35.605 72.454,35.500 72.493,35.500 72.435 C 35.500 72.377,35.236 72.439,34.914 72.574 C 34.270 72.843,34.310 72.833,33.823 72.833 C 33.628 72.833,33.527 72.908,33.587 73.007 C 33.657 73.119,33.543 73.142,33.264 73.072 C 33.002 73.006,32.833 73.034,32.833 73.142 C 32.833 73.240,32.383 73.413,31.833 73.527 C 31.283 73.640,30.833 73.793,30.833 73.867 C 30.833 73.940,30.650 74.000,30.427 74.000 C 30.203 74.000,29.975 74.072,29.921 74.159 C 29.867 74.247,29.713 74.277,29.578 74.225 C 29.443 74.173,29.333 74.218,29.333 74.325 C 29.333 74.432,29.264 74.477,29.178 74.424 C 29.093 74.371,28.982 74.394,28.932 74.476 C 28.881 74.557,28.595 74.680,28.295 74.750 C 27.995 74.819,27.675 74.896,27.583 74.920 C 27.492 74.945,27.304 74.992,27.167 75.024 C 27.029 75.057,26.879 75.121,26.833 75.168 C 26.686 75.317,25.570 75.667,25.238 75.668 C 25.061 75.668,24.714 75.775,24.465 75.904 C 24.217 76.034,23.598 76.233,23.090 76.346 C 22.582 76.460,22.167 76.604,22.167 76.667 C 22.167 76.729,21.756 76.872,21.253 76.985 C 20.750 77.097,20.100 77.309,19.807 77.455 C 19.514 77.601,19.053 77.738,18.783 77.759 C 18.513 77.780,18.243 77.876,18.184 77.972 C 18.125 78.068,17.859 78.186,17.593 78.234 C 17.328 78.282,17.067 78.380,17.014 78.452 C 16.960 78.524,16.767 78.577,16.583 78.569 C 16.400 78.562,16.097 78.647,15.910 78.759 C 15.723 78.870,15.142 79.051,14.618 79.159 C 14.095 79.268,13.667 79.418,13.667 79.493 C 13.667 79.568,13.179 79.721,12.583 79.833 C 11.987 79.946,11.500 80.098,11.500 80.171 C 11.500 80.244,11.181 80.357,10.792 80.421 C 10.402 80.485,9.993 80.611,9.882 80.700 C 9.772 80.789,9.603 80.814,9.507 80.755 C 9.412 80.695,9.333 80.717,9.333 80.803 C 9.333 80.888,8.888 81.057,8.343 81.178 C 7.799 81.299,7.391 81.458,7.437 81.532 C 7.482 81.606,7.384 81.667,7.218 81.668 C 6.616 81.669,5.706 82.011,5.243 82.408 C 4.984 82.632,4.698 82.770,4.610 82.715 C 4.521 82.660,4.490 82.683,4.540 82.766 C 4.633 82.918,4.265 83.352,4.066 83.326 C 3.958 83.312,3.704 83.706,3.305 84.500 C 3.037 85.036,3.007 88.297,3.269 88.464 C 3.371 88.530,3.511 88.771,3.580 89.000 C 3.721 89.470,5.072 90.873,5.230 90.714 C 5.287 90.657,5.333 90.695,5.333 90.798 C 5.333 90.901,5.596 91.034,5.917 91.094 C 6.237 91.155,6.500 91.279,6.500 91.371 C 6.500 91.478,7.002 91.505,7.875 91.446 C 9.301 91.349,10.923 90.978,10.736 90.792 C 10.677 90.733,10.769 90.688,10.939 90.693 C 11.110 90.697,11.754 90.554,12.371 90.374 C 12.987 90.194,13.531 90.087,13.579 90.135 C 13.627 90.183,13.667 90.141,13.667 90.042 C 13.667 89.944,13.967 89.812,14.333 89.750 C 14.700 89.688,15.000 89.556,15.000 89.458 C 15.000 89.359,15.047 89.325,15.104 89.382 C 15.162 89.440,15.406 89.387,15.646 89.266 C 15.887 89.144,16.376 88.992,16.733 88.927 C 17.090 88.862,17.540 88.711,17.733 88.592 C 17.926 88.473,18.457 88.285,18.914 88.175 C 19.372 88.065,19.822 87.917,19.914 87.846 C 20.007 87.775,20.552 87.620,21.125 87.502 C 21.698 87.384,22.167 87.230,22.167 87.159 C 22.167 87.087,22.466 86.979,22.832 86.917 C 23.199 86.855,23.539 86.739,23.588 86.659 C 23.637 86.580,23.787 86.557,23.922 86.608 C 24.057 86.660,24.167 86.633,24.167 86.548 C 24.167 86.464,24.654 86.298,25.249 86.179 C 25.844 86.061,26.298 85.912,26.259 85.848 C 26.219 85.783,26.651 85.629,27.218 85.505 C 27.786 85.381,28.287 85.235,28.333 85.181 C 28.457 85.033,29.565 84.667,29.887 84.667 C 30.041 84.667,30.167 84.594,30.167 84.505 C 30.167 84.416,30.273 84.385,30.403 84.435 C 30.533 84.484,30.849 84.388,31.104 84.221 C 31.360 84.054,31.591 83.939,31.619 83.966 C 31.721 84.065,32.833 83.792,32.833 83.667 C 32.833 83.596,33.321 83.446,33.917 83.333 C 34.512 83.221,35.000 83.068,35.000 82.994 C 35.000 82.860,35.941 82.593,36.055 82.696 C 36.088 82.726,36.236 82.650,36.384 82.527 C 36.531 82.405,36.730 82.353,36.826 82.412 C 36.922 82.471,37.000 82.452,37.000 82.370 C 37.000 82.287,37.416 82.127,37.924 82.013 C 38.432 81.899,39.050 81.700,39.299 81.571 C 39.547 81.441,39.993 81.289,40.290 81.233 C 40.587 81.176,40.793 81.070,40.748 80.997 C 40.703 80.924,40.816 80.904,41.000 80.952 C 41.186 81.000,41.333 80.957,41.333 80.853 C 41.333 80.750,41.390 80.683,41.458 80.702 C 41.670 80.763,43.667 80.271,43.667 80.159 C 43.667 80.043,45.506 79.564,45.708 79.628 C 45.777 79.649,45.833 79.592,45.833 79.500 C 45.833 79.408,45.979 79.333,46.157 79.333 C 46.335 79.333,46.527 79.258,46.583 79.167 C 46.640 79.075,46.854 79.000,47.060 79.000 C 47.265 79.000,47.505 78.935,47.592 78.856 C 47.679 78.777,48.125 78.621,48.583 78.510 C 49.042 78.399,49.642 78.213,49.917 78.097 C 50.672 77.777,54.502 76.545,55.164 76.409 C 55.484 76.343,55.896 76.191,56.081 76.071 C 56.266 75.951,56.622 75.816,56.872 75.771 C 57.123 75.726,57.402 75.644,57.494 75.587 C 57.603 75.520,57.675 79.065,57.705 85.951 L 57.750 96.417 58.320 97.292 C 58.633 97.773,58.989 98.167,59.111 98.167 C 59.233 98.167,59.334 98.260,59.335 98.375 C 59.336 98.590,60.067 99.000,60.450 99.000 C 60.569 99.000,60.667 99.079,60.667 99.177 C 60.667 99.274,60.736 99.310,60.822 99.257 C 60.907 99.204,61.023 99.236,61.080 99.327 C 61.228 99.567,64.213 99.446,64.296 99.196 C 64.332 99.088,64.467 99.000,64.597 99.000 C 64.727 99.000,64.833 98.921,64.833 98.823 C 64.833 98.726,64.908 98.693,65.000 98.750 C 65.092 98.807,65.167 98.792,65.168 98.718 C 65.168 98.644,65.428 98.407,65.745 98.191 C 66.063 97.975,66.367 97.655,66.423 97.480 C 66.479 97.305,66.605 97.212,66.705 97.274 C 66.823 97.347,66.853 97.258,66.789 97.016 C 66.727 96.779,66.778 96.614,66.930 96.555 C 67.060 96.505,67.167 96.247,67.167 95.982 C 67.167 95.717,67.233 95.500,67.315 95.500 C 67.396 95.500,67.459 95.406,67.455 95.292 C 67.451 95.177,67.459 90.709,67.474 85.362 L 67.500 75.640 68.042 75.757 C 68.340 75.821,68.607 75.935,68.636 76.011 C 68.665 76.086,69.096 76.239,69.594 76.350 C 70.092 76.462,70.500 76.624,70.500 76.711 C 70.500 76.798,70.610 76.827,70.745 76.775 C 70.879 76.723,71.030 76.746,71.079 76.826 C 71.128 76.906,71.468 77.022,71.834 77.083 C 72.200 77.145,72.500 77.254,72.500 77.325 C 72.500 77.396,72.952 77.550,73.505 77.668 C 74.058 77.785,74.547 77.942,74.594 78.017 C 74.640 78.091,74.787 78.110,74.922 78.058 C 75.057 78.007,75.167 78.034,75.167 78.118 C 75.167 78.203,75.654 78.369,76.250 78.488 C 76.846 78.606,77.333 78.759,77.333 78.829 C 77.333 78.898,77.782 79.050,78.330 79.166 C 78.878 79.282,79.291 79.434,79.247 79.504 C 79.204 79.574,79.337 79.629,79.543 79.627 C 79.930 79.622,81.020 80.001,81.167 80.192 C 81.212 80.252,81.512 80.351,81.833 80.414 C 82.154 80.476,82.622 80.567,82.873 80.616 C 83.137 80.667,83.284 80.778,83.221 80.880 C 83.151 80.994,83.221 81.015,83.418 80.939 C 83.586 80.875,83.767 80.892,83.820 80.978 C 83.873 81.064,84.164 81.173,84.467 81.220 C 84.770 81.268,85.107 81.378,85.217 81.465 C 85.327 81.553,85.548 81.603,85.708 81.577 C 85.869 81.551,86.000 81.602,86.000 81.691 C 86.000 81.780,86.070 81.810,86.155 81.757 C 86.240 81.704,86.352 81.729,86.403 81.811 C 86.454 81.894,86.834 82.012,87.248 82.074 C 87.662 82.136,88.000 82.247,88.000 82.321 C 88.000 82.394,88.450 82.550,89.000 82.667 C 89.550 82.783,90.000 82.927,90.000 82.985 C 90.000 83.043,90.431 83.191,90.958 83.313 C 91.485 83.435,91.954 83.589,92.000 83.654 C 92.097 83.791,93.944 84.362,94.375 84.387 C 94.535 84.397,94.667 84.458,94.667 84.524 C 94.667 84.589,95.079 84.729,95.583 84.833 C 96.087 84.938,96.500 85.081,96.500 85.151 C 96.500 85.221,96.594 85.290,96.708 85.304 C 97.601 85.416,98.667 85.706,98.667 85.836 C 98.667 85.906,99.151 86.060,99.742 86.178 C 100.333 86.295,100.787 86.441,100.749 86.501 C 100.712 86.561,101.162 86.711,101.750 86.833 C 102.338 86.956,102.786 87.109,102.746 87.173 C 102.707 87.237,103.125 87.385,103.675 87.502 C 104.226 87.619,104.718 87.782,104.769 87.864 C 104.820 87.946,105.014 87.965,105.202 87.906 C 105.419 87.836,105.503 87.861,105.433 87.973 C 105.366 88.082,105.706 88.223,106.326 88.345 C 106.877 88.453,107.295 88.594,107.256 88.656 C 107.218 88.719,107.627 88.862,108.165 88.973 C 108.704 89.084,109.356 89.285,109.614 89.420 C 109.872 89.554,110.446 89.713,110.889 89.772 C 111.460 89.849,111.630 89.926,111.472 90.038 C 111.314 90.150,111.358 90.172,111.625 90.113 C 111.831 90.068,112.000 90.099,112.000 90.182 C 112.000 90.265,112.056 90.323,112.125 90.311 C 112.374 90.267,113.333 90.545,113.333 90.661 C 113.333 90.727,113.765 90.876,114.292 90.992 C 114.819 91.109,115.325 91.250,115.417 91.305 C 115.835 91.556,118.158 91.525,118.531 91.264 C 118.738 91.119,119.041 91.000,119.204 91.000 C 119.367 91.000,119.500 90.913,119.500 90.806 C 119.500 90.699,119.549 90.660,119.610 90.721 C 119.713 90.824,120.289 90.269,121.118 89.266 C 121.334 89.005,121.442 88.710,121.381 88.550 C 121.313 88.374,121.342 88.319,121.463 88.394 C 122.047 88.754,121.922 84.884,121.333 84.363 C 121.111 84.167,121.111 84.156,121.333 84.266 C 121.519 84.359,121.508 84.304,121.292 84.057 C 121.131 83.874,121.000 83.634,121.000 83.524 C 121.000 83.415,120.808 83.252,120.573 83.163 C 120.339 83.074,120.190 82.931,120.243 82.845 C 120.295 82.760,120.079 82.596,119.761 82.481 C 119.444 82.367,119.222 82.211,119.269 82.136 C 119.315 82.061,119.236 81.991,119.093 81.979 C 118.950 81.968,118.777 81.945,118.708 81.928 C 118.640 81.911,118.340 81.840,118.042 81.769 C 117.744 81.698,117.500 81.568,117.500 81.479 C 117.500 81.391,117.406 81.334,117.292 81.352 C 117.177 81.371,116.971 81.345,116.833 81.294 C 116.696 81.244,115.946 81.001,115.167 80.755 C 114.388 80.509,113.638 80.264,113.500 80.210 C 113.362 80.156,113.212 80.104,113.167 80.095 C 113.121 80.086,113.008 80.032,112.917 79.975 C 112.825 79.918,112.431 79.819,112.042 79.755 C 111.652 79.690,111.333 79.581,111.333 79.513 C 111.333 79.445,111.240 79.382,111.125 79.373 C 110.806 79.350,109.126 78.863,108.750 78.686 C 108.567 78.599,108.060 78.430,107.625 78.311 C 107.190 78.192,106.833 78.047,106.833 77.990 C 106.833 77.933,106.402 77.790,105.875 77.673 C 105.348 77.556,104.878 77.399,104.830 77.324 C 104.783 77.249,104.558 77.156,104.330 77.116 C 103.344 76.943,102.833 76.781,102.833 76.643 C 102.833 76.561,102.644 76.528,102.413 76.570 C 102.182 76.612,102.029 76.589,102.072 76.519 C 102.115 76.449,101.667 76.295,101.075 76.178 C 100.484 76.060,100.000 75.905,100.000 75.834 C 100.000 75.763,99.513 75.612,98.917 75.500 C 98.321 75.388,97.833 75.225,97.833 75.138 C 97.833 75.051,97.764 75.023,97.678 75.076 C 97.593 75.129,97.480 75.102,97.427 75.017 C 97.375 74.932,97.032 74.812,96.666 74.750 C 96.300 74.688,96.000 74.563,96.000 74.471 C 96.000 74.380,95.906 74.339,95.792 74.380 C 95.677 74.421,95.396 74.360,95.167 74.245 C 94.938 74.129,94.563 74.008,94.333 73.976 C 94.104 73.943,93.818 73.823,93.696 73.708 C 93.575 73.594,93.275 73.497,93.030 73.494 C 92.784 73.491,92.400 73.386,92.175 73.262 C 91.951 73.138,91.657 73.078,91.523 73.130 C 91.365 73.190,91.321 73.154,91.399 73.028 C 91.477 72.903,91.383 72.824,91.135 72.808 C 90.551 72.769,90.464 72.747,89.809 72.462 C 89.475 72.317,88.782 72.104,88.268 71.989 C 87.754 71.874,87.332 71.698,87.331 71.598 C 87.329 71.498,87.256 71.529,87.167 71.667 C 87.066 71.823,87.004 71.841,87.003 71.715 C 87.001 71.604,86.681 71.430,86.292 71.329 C 85.902 71.228,85.187 71.000,84.702 70.822 C 84.217 70.645,83.632 70.500,83.401 70.500 C 83.122 70.500,83.021 70.434,83.101 70.305 C 83.184 70.170,83.127 70.146,82.916 70.227 C 82.748 70.292,82.563 70.269,82.506 70.177 C 82.411 70.022,81.907 69.876,81.365 69.846 C 81.244 69.839,81.200 69.748,81.266 69.640 C 81.348 69.508,81.273 69.477,81.029 69.541 C 80.832 69.592,80.394 69.492,80.051 69.317 C 79.709 69.143,79.220 69.000,78.965 69.000 C 78.709 69.000,78.500 68.925,78.500 68.833 C 78.500 68.742,78.631 68.666,78.792 68.666 C 78.952 68.665,79.303 68.550,79.572 68.410 C 79.841 68.269,80.160 68.192,80.281 68.239 C 80.401 68.285,80.500 68.269,80.500 68.202 C 80.500 68.102,81.129 67.838,81.917 67.608 C 82.008 67.581,82.552 67.423,83.125 67.257 C 83.698 67.092,84.167 66.891,84.167 66.811 C 84.167 66.732,84.223 66.683,84.292 66.703 C 84.530 66.773,86.500 66.287,86.500 66.159 C 86.500 66.087,86.800 65.979,87.166 65.917 C 87.532 65.855,87.872 65.739,87.921 65.659 C 87.970 65.580,88.114 65.554,88.239 65.602 C 88.365 65.650,88.772 65.535,89.144 65.345 C 89.516 65.155,89.936 65.000,90.077 65.000 C 90.218 65.000,90.333 64.935,90.333 64.856 C 90.333 64.777,90.521 64.749,90.750 64.793 C 90.979 64.836,91.167 64.799,91.167 64.709 C 91.167 64.619,91.615 64.450,92.163 64.334 C 92.711 64.218,93.124 64.066,93.081 63.997 C 93.038 63.927,93.209 63.831,93.460 63.782 C 93.711 63.733,94.067 63.655,94.250 63.609 C 94.433 63.563,94.719 63.520,94.885 63.513 C 95.051 63.506,95.148 63.438,95.101 63.362 C 95.054 63.287,95.500 63.128,96.091 63.011 C 96.683 62.893,97.167 62.739,97.167 62.667 C 97.167 62.596,97.655 62.446,98.252 62.333 C 98.849 62.220,99.374 62.069,99.418 61.997 C 99.463 61.926,99.893 61.773,100.374 61.658 C 100.856 61.543,101.513 61.315,101.833 61.152 C 102.343 60.893,103.120 60.686,103.792 60.629 C 103.906 60.619,104.000 60.561,104.000 60.499 C 104.000 60.437,104.412 60.288,104.917 60.167 C 105.421 60.046,105.833 59.899,105.833 59.841 C 105.833 59.783,106.190 59.634,106.625 59.510 C 107.060 59.386,107.492 59.260,107.583 59.230 C 107.675 59.200,107.900 59.155,108.083 59.130 C 108.267 59.104,108.454 59.042,108.500 58.991 C 108.546 58.940,108.921 58.820,109.333 58.723 C 110.520 58.445,110.577 58.425,110.695 58.262 C 110.756 58.177,110.944 58.088,111.112 58.065 C 111.622 57.994,111.907 57.913,112.125 57.777 C 112.240 57.706,112.420 57.701,112.526 57.766 C 112.638 57.835,112.673 57.812,112.611 57.711 C 112.548 57.610,112.729 57.495,113.043 57.436 C 113.606 57.331,114.054 57.216,114.125 57.159 C 114.148 57.140,114.223 57.114,114.292 57.102 C 114.360 57.089,114.492 57.032,114.583 56.975 C 114.675 56.918,115.179 56.776,115.703 56.660 C 116.226 56.544,116.622 56.395,116.581 56.329 C 116.540 56.263,116.749 56.169,117.045 56.119 C 117.341 56.070,117.808 55.936,118.083 55.821 C 118.358 55.707,118.677 55.629,118.792 55.647 C 118.906 55.666,119.000 55.611,119.000 55.525 C 119.000 55.440,119.182 55.324,119.404 55.268 C 119.868 55.152,121.167 53.891,121.167 53.557 C 121.167 53.434,121.239 53.333,121.327 53.333 C 121.794 53.333,122.013 49.184,121.563 48.856 C 121.380 48.724,121.019 48.165,120.902 47.833 C 120.796 47.534,119.735 46.758,119.208 46.594 C 119.002 46.530,118.833 46.403,118.833 46.312 C 118.833 46.221,118.777 46.182,118.707 46.225 C 118.638 46.268,118.057 46.117,117.416 45.889 C 116.775 45.662,115.895 45.396,115.462 45.300 C 115.028 45.203,114.714 45.058,114.763 44.979 C 114.813 44.899,114.680 44.822,114.468 44.808 C 113.869 44.768,113.675 44.715,112.750 44.332 C 112.567 44.256,111.892 44.061,111.250 43.899 C 110.608 43.737,110.046 43.552,110.000 43.489 C 109.954 43.425,109.485 43.278,108.958 43.160 C 108.431 43.043,108.000 42.884,108.000 42.807 C 108.000 42.730,107.869 42.666,107.708 42.664 C 107.446 42.662,106.317 42.322,105.667 42.050 C 105.344 41.915,105.339 41.913,104.750 41.755 C 104.475 41.681,104.162 41.552,104.054 41.467 C 103.946 41.382,103.681 41.294,103.464 41.271 C 103.247 41.248,102.979 41.173,102.868 41.105 C 102.757 41.036,102.667 41.031,102.667 41.093 C 102.667 41.154,102.482 41.084,102.256 40.936 C 102.031 40.788,101.281 40.543,100.590 40.391 C 99.899 40.239,99.333 40.062,99.333 39.997 C 99.333 39.932,98.883 39.783,98.333 39.667 C 97.783 39.550,97.333 39.400,97.333 39.333 C 97.333 39.267,96.883 39.117,96.333 39.000 C 95.783 38.883,95.333 38.719,95.333 38.634 C 95.333 38.550,95.255 38.529,95.159 38.588 C 95.064 38.647,94.876 38.605,94.743 38.494 C 94.609 38.383,94.500 38.348,94.500 38.417 C 94.500 38.485,94.399 38.457,94.275 38.354 C 94.151 38.251,93.851 38.151,93.608 38.131 C 93.365 38.110,93.167 38.045,93.167 37.984 C 93.167 37.894,92.892 37.811,92.087 37.660 C 92.044 37.652,91.561 37.470,91.014 37.256 C 90.468 37.041,89.716 36.815,89.343 36.752 C 88.971 36.689,88.667 36.577,88.667 36.504 C 88.667 36.431,88.180 36.279,87.585 36.167 C 86.990 36.055,86.536 35.910,86.575 35.846 C 86.615 35.782,86.202 35.637,85.657 35.525 C 85.112 35.412,84.667 35.256,84.667 35.178 C 84.667 35.100,84.179 34.939,83.583 34.821 C 82.987 34.702,82.500 34.539,82.500 34.458 C 82.500 34.377,82.341 34.361,82.146 34.423 C 81.883 34.507,81.826 34.481,81.923 34.323 C 82.016 34.172,81.975 34.141,81.783 34.214 C 81.633 34.272,81.472 34.256,81.424 34.178 C 81.376 34.101,81.059 33.986,80.719 33.922 C 80.379 33.858,79.949 33.699,79.763 33.570 C 79.578 33.440,79.218 33.333,78.963 33.333 C 78.708 33.333,78.500 33.254,78.500 33.157 C 78.500 33.060,78.583 33.032,78.685 33.095 C 78.787 33.158,78.920 33.129,78.981 33.032 C 79.041 32.934,79.276 32.819,79.504 32.777 C 80.933 32.512,81.167 32.449,81.167 32.329 C 81.167 32.256,81.466 32.145,81.832 32.083 C 82.199 32.022,82.541 31.901,82.594 31.816 C 82.647 31.731,82.760 31.704,82.845 31.757 C 82.930 31.810,83.000 31.783,83.000 31.697 C 83.000 31.556,83.261 31.474,84.495 31.229 C 84.721 31.184,84.984 31.088,85.078 31.016 C 85.173 30.944,85.625 30.787,86.083 30.667 C 86.542 30.547,87.012 30.374,87.129 30.284 C 87.246 30.193,87.389 30.167,87.447 30.225 C 87.505 30.283,87.635 30.266,87.735 30.187 C 88.000 29.978,89.215 29.592,89.458 29.640 C 89.573 29.663,89.667 29.615,89.667 29.534 C 89.667 29.453,90.098 29.291,90.625 29.175 C 91.152 29.058,91.669 28.893,91.775 28.808 C 91.961 28.658,92.537 28.488,92.958 28.459 C 93.073 28.451,93.167 28.389,93.167 28.321 C 93.167 28.253,93.335 28.239,93.542 28.290 C 93.748 28.341,93.857 28.319,93.785 28.240 C 93.661 28.106,94.455 27.831,96.750 27.214 C 97.300 27.066,97.802 26.866,97.866 26.769 C 97.930 26.672,98.035 26.646,98.101 26.712 C 98.166 26.777,98.301 26.766,98.401 26.687 C 98.501 26.608,98.977 26.451,99.458 26.339 C 99.939 26.226,100.290 26.064,100.237 25.979 C 100.185 25.894,100.204 25.845,100.279 25.868 C 100.504 25.939,102.333 25.457,102.333 25.328 C 102.333 25.206,103.014 25.014,103.917 24.881 C 104.192 24.841,104.442 24.739,104.472 24.654 C 104.503 24.569,104.659 24.500,104.819 24.500 C 104.980 24.500,105.161 24.450,105.222 24.389 C 105.283 24.328,105.532 24.257,105.776 24.231 C 106.020 24.205,106.264 24.112,106.318 24.025 C 106.372 23.938,106.885 23.774,107.458 23.661 C 108.031 23.549,108.500 23.387,108.500 23.302 C 108.500 23.217,108.578 23.195,108.674 23.255 C 108.770 23.314,108.938 23.287,109.049 23.196 C 109.160 23.105,109.531 22.977,109.875 22.913 C 110.219 22.849,110.500 22.734,110.500 22.658 C 110.500 22.581,110.652 22.548,110.838 22.584 C 111.024 22.620,111.137 22.587,111.089 22.510 C 111.042 22.433,111.323 22.323,111.714 22.264 C 112.106 22.205,112.619 22.057,112.855 21.934 C 113.092 21.812,113.671 21.619,114.143 21.506 C 114.614 21.393,115.000 21.243,115.000 21.173 C 115.000 21.103,115.450 20.950,116.000 20.833 C 116.550 20.717,117.000 20.552,117.000 20.467 C 117.000 20.383,117.072 20.358,117.160 20.412 C 117.248 20.467,117.454 20.435,117.618 20.343 C 117.782 20.250,118.235 20.095,118.625 19.997 C 119.015 19.900,119.333 19.757,119.333 19.678 C 119.333 19.600,119.521 19.489,119.750 19.432 C 119.979 19.374,120.168 19.272,120.170 19.205 C 120.172 19.138,120.329 18.896,120.518 18.667 C 120.707 18.438,120.807 18.355,120.739 18.484 C 120.657 18.638,120.681 18.678,120.808 18.599 C 120.913 18.534,121.000 18.389,121.000 18.277 C 121.000 18.166,121.130 17.889,121.288 17.663 C 121.899 16.790,122.051 12.909,121.459 13.275 C 121.342 13.348,121.315 13.289,121.383 13.111 C 121.442 12.958,121.417 12.833,121.328 12.833 C 121.239 12.833,121.167 12.729,121.167 12.602 C 121.167 12.215,119.628 10.995,118.885 10.793 C 118.501 10.688,118.214 10.559,118.247 10.505 C 118.280 10.451,117.743 10.385,117.054 10.359 C 116.054 10.321,115.827 10.356,115.932 10.531 C 116.034 10.700,116.000 10.698,115.782 10.521 C 115.609 10.381,115.500 10.362,115.500 10.473 C 115.500 10.681,114.236 11.078,113.773 11.015 C 113.603 10.992,113.509 11.046,113.564 11.135 C 113.619 11.224,113.391 11.348,113.058 11.411 C 112.724 11.473,112.293 11.623,112.101 11.744 C 111.908 11.865,111.581 11.935,111.375 11.900 C 111.169 11.864,111.000 11.900,111.000 11.978 C 111.000 12.057,110.550 12.217,110.000 12.333 C 109.450 12.450,109.000 12.604,109.000 12.675 C 109.000 12.746,108.700 12.855,108.333 12.917 C 107.967 12.979,107.667 13.095,107.667 13.176 C 107.667 13.257,107.547 13.277,107.400 13.220 C 107.253 13.164,107.084 13.192,107.025 13.282 C 106.925 13.432,105.693 13.833,105.208 13.872 C 105.094 13.881,105.000 13.938,105.000 13.997 C 105.000 14.057,104.438 14.238,103.750 14.400 C 103.063 14.562,102.500 14.764,102.500 14.848 C 102.500 14.931,102.392 15.000,102.261 15.000 C 102.129 15.000,101.811 15.086,101.553 15.192 C 101.294 15.298,100.918 15.399,100.715 15.416 C 100.513 15.434,100.220 15.553,100.065 15.682 C 99.909 15.811,99.754 15.892,99.720 15.862 C 99.687 15.832,99.117 15.979,98.454 16.189 C 97.054 16.631,97.102 16.619,96.657 16.646 C 96.468 16.657,96.350 16.726,96.395 16.798 C 96.440 16.871,96.050 17.028,95.530 17.148 C 95.009 17.268,94.508 17.424,94.417 17.495 C 94.325 17.565,93.837 17.718,93.333 17.833 C 92.829 17.949,92.326 18.115,92.216 18.203 C 92.105 18.290,91.925 18.306,91.815 18.239 C 91.697 18.166,91.659 18.186,91.721 18.287 C 91.784 18.389,91.545 18.503,91.133 18.569 C 90.750 18.631,90.208 18.783,89.927 18.909 C 89.160 19.252,87.498 19.788,86.792 19.920 C 86.448 19.984,86.167 20.107,86.167 20.193 C 86.167 20.278,86.073 20.329,85.958 20.306 C 85.844 20.282,85.592 20.351,85.398 20.459 C 85.204 20.566,84.792 20.695,84.481 20.746 C 84.171 20.797,83.767 20.909,83.583 20.995 C 82.659 21.429,81.911 21.667,81.470 21.667 C 81.201 21.667,81.021 21.733,81.071 21.813 C 81.159 21.956,80.581 22.135,79.592 22.270 C 79.321 22.307,79.059 22.400,79.008 22.477 C 78.912 22.622,78.007 22.908,77.792 22.861 C 77.723 22.846,77.667 22.901,77.667 22.984 C 77.667 23.067,77.517 23.096,77.333 23.048 C 77.150 23.000,77.000 23.031,77.000 23.116 C 77.000 23.201,76.606 23.365,76.125 23.480 C 75.255 23.689,75.039 23.762,74.083 24.174 C 73.808 24.293,73.452 24.372,73.292 24.351 C 73.131 24.330,73.000 24.392,73.000 24.490 C 73.000 24.587,72.944 24.650,72.875 24.629 C 72.656 24.564,71.167 25.038,71.167 25.174 C 71.167 25.245,70.979 25.283,70.750 25.258 C 70.521 25.233,70.333 25.269,70.333 25.338 C 70.333 25.407,70.052 25.516,69.708 25.580 C 69.365 25.644,68.769 25.840,68.384 26.015 C 68.000 26.190,67.643 26.333,67.592 26.333 C 67.542 26.333,67.500 21.838,67.500 16.343 C 67.500 10.714,67.435 6.313,67.352 6.262 C 67.271 6.211,67.157 5.917,67.099 5.607 C 67.041 5.297,66.807 4.828,66.580 4.564 C 66.353 4.299,66.167 4.023,66.167 3.948 C 66.167 3.874,66.103 3.853,66.025 3.901 C 65.947 3.949,65.793 3.822,65.682 3.619 C 65.460 3.213,64.267 2.585,64.015 2.741 C 63.928 2.795,63.809 2.763,63.752 2.669 C 63.587 2.404,61.168 2.482,60.458 2.776 M171.986 17.729 C 171.926 17.782,168.964 17.987,168.115 17.997 C 167.949 17.999,167.850 18.059,167.895 18.131 C 167.939 18.203,167.850 18.269,167.696 18.278 C 167.542 18.287,167.117 18.341,166.750 18.399 C 166.383 18.456,165.821 18.539,165.500 18.582 C 164.526 18.712,163.921 18.868,163.829 19.012 C 163.781 19.087,163.489 19.193,163.181 19.247 C 162.873 19.302,162.491 19.416,162.332 19.501 C 162.174 19.585,161.996 19.608,161.939 19.550 C 161.881 19.492,161.833 19.532,161.833 19.639 C 161.833 19.746,161.688 19.833,161.510 19.833 C 161.332 19.833,161.140 19.908,161.083 20.000 C 161.027 20.092,160.835 20.167,160.657 20.167 C 160.479 20.167,160.333 20.242,160.333 20.333 C 160.333 20.425,160.220 20.500,160.081 20.500 C 159.851 20.500,159.513 20.643,158.833 21.026 C 158.218 21.374,157.648 21.607,157.323 21.646 C 157.226 21.657,157.188 21.733,157.237 21.813 C 157.287 21.894,157.113 22.002,156.851 22.055 C 156.588 22.107,156.257 22.266,156.115 22.408 C 155.973 22.550,155.796 22.667,155.720 22.667 C 155.645 22.667,155.365 22.854,155.099 23.084 C 154.833 23.313,154.512 23.500,154.386 23.500 C 154.259 23.500,154.113 23.613,154.060 23.750 C 154.008 23.887,153.870 24.000,153.756 24.000 C 153.641 24.000,153.406 24.188,153.234 24.417 C 153.062 24.646,152.845 24.835,152.752 24.838 C 152.659 24.841,152.365 25.066,152.097 25.338 C 151.830 25.610,151.544 25.833,151.462 25.833 C 151.381 25.833,151.344 25.890,151.380 25.958 C 151.417 26.027,151.309 26.215,151.140 26.375 C 150.971 26.535,150.833 26.610,150.832 26.542 C 150.832 26.473,150.682 26.642,150.500 26.917 C 150.318 27.192,150.168 27.355,150.168 27.279 C 150.167 27.203,149.960 27.390,149.708 27.695 C 149.456 28.000,149.100 28.415,148.917 28.617 C 148.378 29.210,148.167 29.480,148.167 29.574 C 148.167 29.654,147.865 30.051,147.416 30.560 C 147.324 30.665,147.101 31.031,146.920 31.375 C 146.739 31.719,146.533 32.000,146.462 32.000 C 146.391 32.000,146.333 32.103,146.333 32.230 C 146.333 32.356,146.217 32.555,146.076 32.673 C 145.934 32.791,145.858 32.991,145.907 33.119 C 145.956 33.246,145.927 33.308,145.843 33.256 C 145.759 33.204,145.639 33.332,145.576 33.539 C 145.512 33.747,145.338 34.061,145.189 34.237 C 145.039 34.413,145.008 34.504,145.119 34.439 C 145.230 34.374,145.141 34.639,144.920 35.026 C 144.700 35.414,144.565 35.803,144.619 35.891 C 144.674 35.979,144.632 35.998,144.526 35.933 C 144.420 35.867,144.324 35.893,144.313 35.990 C 144.301 36.087,144.276 36.223,144.257 36.292 C 144.022 37.148,143.940 37.333,143.797 37.333 C 143.706 37.333,143.674 37.446,143.727 37.583 C 143.780 37.721,143.757 37.833,143.676 37.833 C 143.595 37.833,143.479 38.133,143.417 38.500 C 143.355 38.867,143.249 39.167,143.182 39.167 C 143.115 39.167,142.970 39.741,142.861 40.444 C 142.752 41.146,142.593 41.805,142.507 41.908 C 142.422 42.011,142.376 42.242,142.405 42.422 C 142.434 42.603,142.399 42.825,142.328 42.917 C 142.156 43.138,141.815 47.237,141.829 48.917 C 141.842 50.504,142.005 54.038,142.085 54.455 C 142.116 54.617,142.147 55.073,142.154 55.468 C 142.161 55.863,142.232 56.146,142.313 56.096 C 142.393 56.046,142.438 56.248,142.412 56.545 C 142.386 56.841,142.424 57.158,142.495 57.250 C 142.567 57.342,142.678 57.847,142.741 58.372 C 142.805 58.898,142.928 59.372,143.014 59.426 C 143.101 59.479,143.127 59.596,143.072 59.685 C 143.016 59.775,143.042 59.938,143.129 60.049 C 143.216 60.160,143.341 60.475,143.407 60.750 C 143.472 61.025,143.625 61.475,143.747 61.750 C 143.869 62.025,144.013 62.451,144.068 62.697 C 144.123 62.942,144.280 63.256,144.417 63.393 C 144.554 63.530,144.667 63.786,144.667 63.960 C 144.667 64.135,144.723 64.334,144.792 64.403 C 144.860 64.472,144.918 64.578,144.921 64.639 C 144.927 64.820,145.890 66.742,146.021 66.835 C 146.086 66.882,146.193 67.132,146.258 67.390 C 146.323 67.649,146.479 67.900,146.605 67.948 C 146.730 67.996,146.833 68.142,146.833 68.273 C 146.833 68.404,146.945 68.553,147.082 68.606 C 147.219 68.659,147.290 68.769,147.239 68.851 C 147.188 68.933,147.217 69.000,147.303 69.000 C 147.389 69.000,147.551 69.220,147.662 69.488 C 147.773 69.756,147.969 70.017,148.099 70.066 C 148.228 70.116,148.333 70.260,148.333 70.387 C 148.333 70.514,148.541 70.798,148.794 71.017 C 149.047 71.237,149.540 71.774,149.890 72.210 C 150.239 72.647,150.594 72.962,150.678 72.910 C 150.761 72.858,150.780 72.945,150.719 73.104 C 150.634 73.326,150.674 73.366,150.896 73.281 C 151.055 73.220,151.143 73.236,151.094 73.316 C 151.005 73.459,152.091 74.440,153.417 75.415 C 153.783 75.684,154.178 75.996,154.293 76.108 C 154.408 76.220,154.652 76.359,154.834 76.417 C 155.017 76.475,155.167 76.577,155.167 76.644 C 155.167 76.711,155.429 76.861,155.750 76.977 C 156.071 77.093,156.333 77.249,156.333 77.324 C 156.333 77.399,156.577 77.558,156.875 77.679 C 157.173 77.799,157.454 77.946,157.500 78.006 C 157.546 78.065,157.956 78.255,158.412 78.427 C 158.867 78.599,159.502 78.873,159.822 79.037 C 160.142 79.200,160.523 79.333,160.669 79.333 C 160.814 79.333,161.005 79.404,161.092 79.490 C 161.241 79.637,161.626 79.748,162.708 79.951 C 162.960 79.999,163.167 80.097,163.167 80.169 C 163.167 80.241,163.387 80.285,163.656 80.266 C 163.925 80.248,164.113 80.285,164.073 80.350 C 164.033 80.414,164.451 80.520,165.001 80.583 C 165.551 80.647,166.039 80.761,166.085 80.836 C 166.202 81.026,166.929 81.051,172.250 81.050 C 178.072 81.049,178.541 81.034,178.433 80.860 C 178.385 80.782,179.014 80.637,179.830 80.536 C 180.708 80.428,181.503 80.230,181.775 80.052 C 182.028 79.886,182.257 79.769,182.284 79.792 C 182.445 79.928,183.345 79.798,183.531 79.611 C 183.653 79.489,183.978 79.334,184.252 79.265 C 184.526 79.197,184.975 79.044,185.250 78.926 C 185.525 78.808,186.069 78.578,186.458 78.414 C 186.848 78.250,187.167 78.066,187.167 78.006 C 187.167 77.945,187.429 77.793,187.750 77.667 C 188.071 77.541,188.333 77.384,188.333 77.319 C 188.333 77.253,188.558 77.121,188.833 77.025 C 189.108 76.929,189.333 76.773,189.333 76.678 C 189.333 76.582,189.577 76.402,189.875 76.277 C 190.173 76.152,190.653 75.832,190.941 75.566 C 191.229 75.301,191.604 74.997,191.774 74.891 C 191.944 74.784,192.065 74.616,192.042 74.516 C 192.019 74.415,192.080 74.333,192.179 74.333 C 192.407 74.333,192.737 73.999,192.879 73.625 C 192.940 73.465,193.104 73.333,193.245 73.333 C 193.385 73.333,193.500 73.257,193.500 73.164 C 193.500 73.070,193.744 72.752,194.042 72.455 C 194.826 71.676,195.106 71.079,194.840 70.758 C 194.724 70.618,194.561 70.546,194.477 70.598 C 194.393 70.649,194.346 70.598,194.371 70.484 C 194.396 70.370,194.229 70.178,194.000 70.058 C 193.771 69.937,193.646 69.837,193.722 69.836 C 193.798 69.834,193.367 69.332,192.764 68.720 C 192.160 68.108,191.667 67.545,191.667 67.470 C 191.667 67.395,191.554 67.333,191.417 67.333 C 191.279 67.333,191.167 67.258,191.167 67.165 C 191.167 66.910,189.794 65.505,189.639 65.600 C 189.565 65.646,189.548 65.568,189.603 65.425 C 189.659 65.279,189.614 65.167,189.500 65.167 C 189.388 65.167,189.128 65.004,188.921 64.805 C 188.354 64.259,185.430 63.982,185.753 64.504 C 185.792 64.568,185.520 64.739,185.147 64.886 C 184.763 65.037,184.517 65.227,184.579 65.326 C 184.638 65.422,184.595 65.500,184.484 65.500 C 184.373 65.500,184.036 65.688,183.735 65.917 C 183.435 66.146,183.128 66.333,183.053 66.334 C 182.978 66.334,182.699 66.521,182.432 66.750 C 182.166 66.979,181.843 67.167,181.714 67.167 C 181.580 67.167,181.531 67.249,181.599 67.359 C 181.677 67.484,181.645 67.506,181.507 67.421 C 181.384 67.345,181.237 67.386,181.154 67.520 C 181.018 67.741,180.955 67.766,180.429 67.813 C 180.298 67.824,180.091 67.933,179.969 68.055 C 179.705 68.319,179.104 68.483,177.939 68.608 C 177.469 68.659,177.034 68.779,176.974 68.876 C 176.823 69.119,170.531 69.148,170.369 68.905 C 170.304 68.808,169.705 68.627,169.040 68.503 C 168.374 68.380,167.746 68.179,167.644 68.056 C 167.542 67.934,167.279 67.833,167.058 67.833 C 166.837 67.833,166.614 67.723,166.562 67.588 C 166.510 67.453,166.215 67.295,165.907 67.237 C 165.598 67.179,165.258 67.027,165.152 66.899 C 165.046 66.771,164.890 66.667,164.806 66.667 C 164.625 66.667,164.335 66.446,163.546 65.708 C 163.227 65.410,162.921 65.167,162.865 65.167 C 162.706 65.167,161.000 63.322,161.000 63.152 C 161.000 63.068,160.912 63.000,160.806 63.000 C 160.699 63.000,160.657 62.955,160.712 62.899 C 160.768 62.843,160.667 62.641,160.489 62.450 C 160.311 62.259,160.002 61.761,159.802 61.343 C 159.603 60.925,159.392 60.546,159.333 60.500 C 159.210 60.404,158.972 59.860,158.903 59.517 C 158.877 59.388,158.783 59.238,158.695 59.183 C 158.607 59.128,158.449 58.765,158.344 58.375 C 158.239 57.985,158.086 57.667,158.003 57.667 C 157.920 57.667,157.884 57.503,157.922 57.304 C 157.961 57.105,157.909 56.841,157.807 56.718 C 157.629 56.504,157.568 56.216,157.521 55.365 C 157.510 55.154,157.443 55.016,157.372 55.059 C 157.302 55.102,157.254 54.826,157.265 54.444 C 157.276 54.062,157.202 53.696,157.101 53.631 C 156.838 53.461,156.844 45.533,157.107 45.369 C 157.211 45.304,157.337 44.837,157.385 44.333 C 157.434 43.829,157.548 43.179,157.638 42.888 C 157.729 42.597,157.760 42.315,157.707 42.263 C 157.654 42.210,157.707 42.167,157.823 42.167 C 157.944 42.167,157.994 42.058,157.940 41.917 C 157.887 41.779,157.910 41.667,157.991 41.667 C 158.071 41.667,158.188 41.365,158.251 40.997 C 158.313 40.628,158.475 40.216,158.610 40.080 C 158.746 39.944,158.812 39.833,158.758 39.833 C 158.647 39.833,159.150 38.798,159.324 38.667 C 159.386 38.621,159.534 38.340,159.655 38.042 C 159.775 37.744,159.940 37.500,160.020 37.500 C 160.101 37.500,160.167 37.406,160.167 37.292 C 160.167 37.177,160.392 36.821,160.667 36.500 C 160.941 36.179,161.166 35.855,161.166 35.780 C 161.167 35.429,164.176 32.788,164.794 32.594 C 165.002 32.529,165.130 32.408,165.079 32.326 C 165.027 32.243,165.326 32.089,165.743 31.984 C 166.159 31.880,166.500 31.731,166.500 31.654 C 166.500 31.576,166.800 31.423,167.167 31.314 C 167.533 31.204,167.833 31.058,167.833 30.990 C 167.833 30.862,169.143 30.506,169.795 30.457 C 170.000 30.442,170.167 30.380,170.167 30.321 C 170.167 30.262,170.355 30.249,170.584 30.293 C 170.814 30.337,171.126 30.270,171.277 30.145 C 171.679 29.811,177.784 29.817,177.990 30.151 C 178.071 30.282,178.253 30.336,178.409 30.276 C 178.589 30.207,178.644 30.235,178.567 30.359 C 178.487 30.489,178.590 30.522,178.896 30.463 C 179.141 30.416,179.377 30.436,179.422 30.508 C 179.466 30.579,179.801 30.688,180.168 30.750 C 180.534 30.812,180.833 30.921,180.833 30.993 C 180.833 31.065,181.190 31.220,181.625 31.339 C 182.060 31.457,182.529 31.657,182.667 31.782 C 183.271 32.334,183.730 32.667,183.885 32.667 C 183.977 32.667,184.284 32.843,184.568 33.059 C 184.851 33.275,185.271 33.510,185.500 33.582 C 185.729 33.653,185.964 33.786,186.023 33.877 C 186.236 34.209,188.048 34.403,188.911 34.185 C 189.718 33.982,191.333 32.597,191.333 32.108 C 191.333 31.957,191.441 31.833,191.572 31.833 C 191.703 31.833,191.856 31.692,191.911 31.519 C 191.966 31.345,192.196 31.004,192.422 30.760 C 192.648 30.516,192.833 30.208,192.833 30.075 C 192.833 29.942,192.938 29.833,193.065 29.833 C 193.193 29.833,193.344 29.646,193.402 29.418 C 193.459 29.189,193.588 29.020,193.689 29.043 C 193.790 29.065,193.897 28.935,193.927 28.753 C 193.957 28.571,194.061 28.396,194.159 28.364 C 194.256 28.331,194.293 28.236,194.241 28.152 C 194.189 28.069,194.262 28.000,194.404 28.000 C 194.545 28.000,194.707 27.813,194.765 27.583 C 194.822 27.354,194.962 27.167,195.075 27.167 C 195.293 27.167,195.667 26.478,195.667 26.075 C 195.667 25.809,195.416 25.539,194.356 24.667 C 193.967 24.346,193.446 23.912,193.199 23.704 C 192.952 23.495,192.675 23.269,192.583 23.202 C 192.492 23.135,192.106 22.837,191.726 22.540 C 191.346 22.243,190.952 22.000,190.851 22.000 C 190.750 22.000,190.667 21.916,190.667 21.814 C 190.667 21.708,190.519 21.667,190.323 21.718 C 190.113 21.773,189.944 21.715,189.889 21.570 C 189.839 21.440,189.718 21.333,189.620 21.333 C 189.523 21.333,189.293 21.202,189.109 21.042 C 188.870 20.832,188.816 20.820,188.917 21.000 C 189.033 21.206,189.001 21.203,188.737 20.984 C 188.401 20.705,186.884 19.947,186.563 19.898 C 186.460 19.882,186.122 19.753,185.813 19.611 C 185.265 19.360,183.918 18.942,183.583 18.919 C 183.492 18.913,183.342 18.861,183.250 18.804 C 183.158 18.746,182.671 18.647,182.167 18.583 C 181.662 18.519,181.203 18.392,181.146 18.299 C 180.946 17.977,172.311 17.439,171.986 17.729 M220.076 18.322 C 220.129 18.407,220.096 18.524,220.003 18.582 C 219.910 18.639,219.833 18.832,219.833 19.010 C 219.833 19.188,219.758 19.333,219.667 19.333 C 219.575 19.333,219.500 19.543,219.500 19.800 C 219.500 20.057,219.420 20.347,219.322 20.445 C 219.153 20.614,219.041 20.984,219.013 21.468 C 219.006 21.588,218.938 21.648,218.863 21.601 C 218.787 21.555,218.626 21.904,218.505 22.378 C 218.383 22.852,218.189 23.335,218.074 23.450 C 217.958 23.566,217.811 23.980,217.746 24.372 C 217.682 24.763,217.546 25.186,217.445 25.311 C 217.261 25.538,217.041 26.069,216.538 27.500 C 216.393 27.912,216.228 28.287,216.171 28.333 C 216.114 28.379,215.972 28.754,215.856 29.167 C 215.740 29.579,215.500 30.235,215.323 30.623 C 215.145 31.012,215.000 31.406,215.000 31.499 C 215.000 31.592,214.850 31.947,214.667 32.289 C 214.484 32.631,214.288 33.156,214.232 33.455 C 214.176 33.755,214.079 34.000,214.018 34.000 C 213.956 34.000,213.803 34.356,213.677 34.792 C 213.551 35.227,213.347 35.731,213.224 35.912 C 213.101 36.093,213.000 36.355,212.999 36.495 C 212.998 36.635,212.887 36.963,212.751 37.224 C 212.615 37.484,212.398 38.047,212.269 38.474 C 212.140 38.901,211.914 39.475,211.768 39.750 C 211.622 40.025,211.502 40.413,211.501 40.613 C 211.500 40.813,211.391 41.085,211.257 41.219 C 211.124 41.353,210.927 41.808,210.821 42.231 C 210.714 42.654,210.552 43.000,210.461 43.000 C 210.369 43.000,210.334 43.150,210.382 43.333 C 210.430 43.517,210.409 43.667,210.336 43.667 C 210.263 43.667,210.152 43.940,210.090 44.274 C 210.027 44.608,209.872 44.985,209.745 45.113 C 209.617 45.240,209.464 45.623,209.405 45.964 C 209.345 46.304,209.163 46.818,208.999 47.104 C 208.836 47.391,208.651 47.860,208.588 48.146 C 208.525 48.432,208.404 48.667,208.320 48.667 C 208.236 48.667,208.167 48.850,208.167 49.073 C 208.167 49.297,208.092 49.527,208.000 49.583 C 207.908 49.640,207.833 49.832,207.833 50.010 C 207.833 50.188,207.740 50.334,207.625 50.336 C 207.486 50.338,207.500 50.392,207.667 50.500 C 207.822 50.601,207.841 50.663,207.715 50.664 C 207.604 50.666,207.419 50.985,207.304 51.375 C 207.189 51.765,206.999 52.182,206.881 52.304 C 206.763 52.425,206.661 52.650,206.654 52.804 C 206.629 53.349,206.520 53.718,206.353 53.821 C 206.261 53.878,206.139 54.184,206.083 54.501 C 206.027 54.818,205.866 55.205,205.724 55.362 C 205.583 55.518,205.514 55.722,205.572 55.815 C 205.629 55.907,205.524 56.267,205.338 56.614 C 205.152 56.961,205.000 57.377,205.000 57.539 C 205.000 57.701,204.925 57.833,204.833 57.833 C 204.742 57.833,204.667 57.947,204.667 58.085 C 204.667 58.224,204.523 58.655,204.348 59.043 C 204.173 59.432,203.942 60.031,203.835 60.375 C 203.728 60.719,203.586 61.000,203.519 61.000 C 203.451 61.000,203.300 61.376,203.182 61.835 C 203.065 62.294,202.826 62.965,202.651 63.327 C 202.476 63.688,202.333 64.086,202.333 64.210 C 202.333 64.335,202.223 64.582,202.089 64.760 C 201.954 64.938,201.842 65.212,201.839 65.370 C 201.836 65.528,201.644 66.070,201.413 66.576 C 201.182 67.081,200.948 67.721,200.892 67.997 C 200.837 68.274,200.707 68.501,200.604 68.503 C 200.492 68.504,200.506 68.562,200.639 68.646 C 200.821 68.762,200.818 68.804,200.621 68.879 C 200.489 68.930,200.333 69.272,200.274 69.638 C 200.215 70.005,200.081 70.334,199.975 70.369 C 199.869 70.405,199.769 70.580,199.752 70.758 C 199.735 70.937,199.597 71.373,199.445 71.726 C 199.293 72.080,199.206 72.429,199.252 72.503 C 199.298 72.578,199.252 72.666,199.150 72.700 C 198.997 72.751,198.670 73.460,198.433 74.250 C 198.317 74.640,198.130 75.116,197.910 75.583 C 197.781 75.858,197.584 76.435,197.472 76.865 C 197.361 77.295,197.217 77.614,197.153 77.575 C 197.089 77.535,196.991 77.747,196.935 78.046 C 196.879 78.345,196.683 78.869,196.500 79.211 C 195.756 80.599,195.314 80.508,202.745 80.496 C 207.807 80.488,209.373 80.437,209.537 80.275 C 209.727 80.087,210.024 79.934,210.367 79.846 C 210.764 79.744,212.167 78.052,212.167 77.674 C 212.167 77.569,212.386 76.906,212.653 76.200 C 212.921 75.494,213.195 74.767,213.263 74.583 C 213.331 74.400,213.369 74.149,213.348 74.025 C 213.328 73.901,213.391 73.849,213.489 73.910 C 213.646 74.007,213.758 73.538,213.680 73.107 C 213.666 73.029,213.804 72.712,213.986 72.404 C 214.168 72.095,214.366 71.578,214.427 71.255 C 214.487 70.931,214.613 70.667,214.706 70.667 C 214.807 70.667,214.833 70.448,214.771 70.125 C 214.709 69.802,214.725 69.673,214.809 69.804 C 214.904 69.951,215.019 69.685,215.151 69.012 C 215.260 68.456,215.415 68.000,215.494 68.000 C 215.573 68.000,215.688 67.700,215.750 67.333 L 215.863 66.667 227.474 66.667 L 239.085 66.667 239.289 67.126 C 239.401 67.379,239.541 67.829,239.600 68.126 C 239.660 68.423,239.782 68.667,239.872 68.667 C 239.962 68.667,239.992 68.779,239.940 68.917 C 239.887 69.054,239.908 69.167,239.986 69.167 C 240.065 69.167,240.178 69.492,240.237 69.889 C 240.297 70.286,240.493 70.886,240.673 71.222 C 240.853 71.558,241.002 71.870,241.004 71.916 C 241.022 72.301,241.233 73.000,241.331 73.000 C 241.399 73.000,241.550 73.450,241.667 74.000 C 241.783 74.550,241.948 75.000,242.033 75.000 C 242.117 75.000,242.138 75.078,242.079 75.174 C 242.020 75.270,242.044 75.438,242.134 75.549 C 242.223 75.660,242.392 76.181,242.508 76.708 C 242.624 77.235,242.783 77.667,242.860 77.667 C 242.937 77.667,243.000 77.779,243.000 77.917 C 243.000 78.054,243.079 78.167,243.177 78.167 C 243.274 78.167,243.306 78.242,243.249 78.335 C 243.192 78.427,243.263 78.547,243.406 78.602 C 243.549 78.657,243.667 78.807,243.667 78.934 C 243.667 79.062,243.742 79.167,243.833 79.167 C 243.925 79.167,244.134 79.301,244.299 79.465 C 244.614 79.781,245.663 80.274,245.875 80.206 C 245.944 80.184,246.000 80.242,246.000 80.333 C 246.000 80.545,258.941 80.564,259.072 80.352 C 259.122 80.271,259.051 80.112,258.915 79.998 C 258.778 79.885,258.667 79.656,258.667 79.489 C 258.667 79.323,258.590 79.139,258.497 79.082 C 258.404 79.024,258.368 78.912,258.417 78.833 C 258.498 78.701,258.161 77.821,257.566 76.611 C 257.438 76.352,257.333 76.066,257.333 75.976 C 257.333 75.886,257.121 75.348,256.862 74.781 C 256.331 73.620,256.049 72.872,255.798 71.958 C 255.703 71.615,255.561 71.333,255.482 71.333 C 255.402 71.333,255.288 71.028,255.229 70.655 C 255.169 70.283,255.031 69.888,254.922 69.779 C 254.813 69.670,254.754 69.487,254.792 69.374 C 254.830 69.260,254.786 69.167,254.695 69.167 C 254.604 69.167,254.479 68.867,254.417 68.500 C 254.355 68.133,254.231 67.833,254.142 67.833 C 254.053 67.833,254.029 67.755,254.088 67.659 C 254.147 67.564,254.128 67.395,254.046 67.284 C 253.963 67.174,253.686 66.521,253.429 65.833 C 253.171 65.146,252.782 64.207,252.564 63.748 C 252.345 63.288,252.167 62.750,252.167 62.553 C 252.167 62.356,252.091 62.169,251.998 62.138 C 251.906 62.107,251.795 61.895,251.752 61.666 C 251.709 61.437,251.587 61.063,251.481 60.833 C 251.199 60.222,251.034 59.797,250.916 59.375 C 250.858 59.169,250.736 59.000,250.646 59.000 C 250.555 59.000,250.524 58.930,250.577 58.844 C 250.630 58.758,250.537 58.440,250.370 58.136 C 250.203 57.832,250.055 57.403,250.042 57.182 C 250.028 56.961,249.942 56.734,249.851 56.678 C 249.760 56.621,249.612 56.247,249.522 55.847 C 249.432 55.446,249.288 55.073,249.203 55.017 C 249.117 54.962,248.948 54.523,248.826 54.042 C 248.704 53.560,248.559 53.167,248.505 53.167 C 248.451 53.167,248.304 52.810,248.179 52.375 C 248.055 51.940,247.857 51.396,247.739 51.167 C 247.472 50.644,247.301 50.178,247.220 49.750 C 247.185 49.567,247.084 49.392,246.995 49.361 C 246.906 49.331,246.833 49.204,246.833 49.080 C 246.833 48.956,246.746 48.644,246.640 48.386 C 246.533 48.128,246.458 47.860,246.473 47.792 C 246.488 47.723,246.434 47.667,246.354 47.667 C 246.274 47.667,246.163 47.442,246.108 47.167 C 246.053 46.892,245.848 46.314,245.651 45.882 C 245.326 45.170,245.216 44.834,245.179 44.448 C 245.172 44.374,245.087 44.363,244.989 44.424 C 244.891 44.484,244.829 44.432,244.851 44.308 C 244.907 43.995,244.346 42.194,244.156 42.077 C 244.070 42.024,244.000 41.835,244.000 41.657 C 244.000 41.479,243.938 41.333,243.861 41.333 C 243.785 41.333,243.719 41.240,243.716 41.125 C 243.704 40.747,243.586 40.428,243.375 40.200 C 243.260 40.077,243.167 39.807,243.167 39.599 C 243.167 39.392,243.110 39.166,243.042 39.097 C 242.973 39.028,242.910 38.922,242.903 38.861 C 242.890 38.759,242.646 38.119,242.384 37.500 C 242.326 37.362,242.266 37.212,242.250 37.167 C 242.235 37.121,242.135 36.872,242.028 36.614 C 241.921 36.356,241.833 36.044,241.833 35.920 C 241.833 35.796,241.758 35.669,241.665 35.638 C 241.572 35.607,241.462 35.432,241.421 35.249 C 241.145 34.042,240.892 33.330,240.780 33.442 C 240.708 33.514,240.696 33.452,240.753 33.303 C 240.809 33.155,240.776 32.984,240.678 32.924 C 240.580 32.863,240.500 32.684,240.500 32.525 C 240.500 32.367,240.368 31.978,240.207 31.660 C 240.045 31.343,239.808 30.765,239.680 30.375 C 239.552 29.985,239.393 29.667,239.328 29.667 C 239.263 29.667,239.163 29.385,239.106 29.042 C 239.049 28.698,238.883 28.192,238.737 27.917 C 238.590 27.642,238.441 27.304,238.407 27.167 C 238.372 27.029,238.271 26.624,238.184 26.267 C 238.096 25.910,237.951 25.573,237.863 25.517 C 237.774 25.462,237.612 25.086,237.504 24.682 C 237.395 24.278,237.194 23.775,237.056 23.566 C 236.919 23.356,236.811 23.143,236.816 23.093 C 236.843 22.834,236.610 22.000,236.511 22.000 C 236.448 22.000,236.296 21.608,236.173 21.130 C 236.051 20.651,235.856 20.165,235.740 20.050 C 235.625 19.934,235.479 19.538,235.417 19.170 C 235.345 18.743,235.215 18.500,235.059 18.500 C 234.924 18.500,234.860 18.425,234.917 18.333 C 234.985 18.223,232.471 18.167,227.500 18.167 C 222.901 18.167,220.018 18.227,220.076 18.322 M263.780 18.276 C 263.719 18.336,263.669 32.361,263.668 49.443 L 263.665 80.500 270.082 80.500 L 276.500 80.500 276.529 63.208 C 276.545 53.698,276.564 45.186,276.571 44.292 C 276.578 43.398,276.527 42.667,276.458 42.667 C 276.390 42.667,276.337 42.460,276.342 42.208 L 276.351 41.750 276.634 42.162 C 276.789 42.388,277.142 42.807,277.417 43.093 C 277.692 43.378,278.022 43.809,278.150 44.050 C 278.279 44.291,278.439 44.454,278.507 44.412 C 278.575 44.371,278.754 44.598,278.906 44.918 C 279.058 45.238,279.254 45.500,279.341 45.500 C 279.429 45.500,279.500 45.598,279.500 45.719 C 279.500 45.839,279.725 46.153,280.000 46.417 C 280.275 46.680,280.500 46.999,280.500 47.124 C 280.500 47.250,280.564 47.314,280.642 47.266 C 280.719 47.217,280.888 47.379,281.017 47.626 C 281.145 47.872,281.362 48.196,281.500 48.347 C 281.637 48.497,281.975 48.908,282.250 49.261 C 282.525 49.613,282.915 50.073,283.117 50.284 C 283.320 50.494,283.434 50.667,283.372 50.667 C 283.310 50.667,283.427 50.784,283.632 50.928 C 283.838 51.072,283.965 51.256,283.915 51.336 C 283.865 51.417,283.976 51.565,284.162 51.664 C 284.348 51.764,284.500 51.959,284.500 52.099 C 284.500 52.239,284.568 52.311,284.650 52.260 C 284.733 52.209,284.957 52.468,285.148 52.834 C 285.339 53.201,285.749 53.747,286.058 54.048 C 286.368 54.349,286.674 54.761,286.739 54.964 C 286.803 55.167,286.963 55.333,287.095 55.333 C 287.226 55.333,287.333 55.421,287.333 55.528 C 287.333 55.635,287.444 55.841,287.580 55.986 C 288.290 56.745,288.666 57.236,288.757 57.521 C 288.812 57.695,288.928 57.794,289.015 57.741 C 289.102 57.687,289.265 57.858,289.378 58.121 C 289.588 58.610,289.630 58.667,290.496 59.662 C 290.773 59.980,291.000 60.299,291.000 60.370 C 291.000 60.442,291.117 60.500,291.260 60.500 C 291.403 60.500,291.473 60.575,291.417 60.667 C 291.360 60.758,291.374 60.833,291.448 60.834 C 291.523 60.834,291.796 61.171,292.057 61.584 C 292.317 61.996,292.599 62.333,292.682 62.333 C 292.765 62.333,292.833 62.430,292.833 62.549 C 292.833 62.667,293.125 63.032,293.482 63.360 C 293.838 63.688,294.186 64.135,294.255 64.353 C 294.323 64.571,294.523 64.900,294.699 65.083 C 295.478 65.894,296.132 66.645,296.189 66.793 C 296.286 67.049,297.045 68.012,297.500 68.458 C 297.729 68.682,297.917 68.930,297.917 69.009 C 297.917 69.088,298.067 69.262,298.250 69.396 C 298.433 69.530,298.583 69.706,298.583 69.788 C 298.583 70.002,299.394 70.934,299.677 71.046 C 299.850 71.114,299.856 71.144,299.700 71.154 C 299.576 71.161,299.677 71.346,299.932 71.583 C 300.180 71.813,300.331 72.000,300.269 72.000 C 300.206 72.000,300.420 72.243,300.744 72.541 C 301.068 72.838,301.333 73.178,301.333 73.296 C 301.333 73.414,301.446 73.554,301.583 73.606 C 301.721 73.659,301.833 73.795,301.833 73.909 C 301.833 74.023,302.099 74.390,302.425 74.724 C 302.750 75.059,302.958 75.333,302.888 75.333 C 302.817 75.333,302.926 75.450,303.130 75.593 C 303.333 75.735,303.500 75.957,303.500 76.085 C 303.500 76.212,303.602 76.377,303.726 76.450 C 303.850 76.523,304.049 76.771,304.169 77.000 C 304.288 77.229,304.524 77.515,304.693 77.634 C 304.862 77.754,305.000 77.960,305.000 78.093 C 305.000 78.225,305.112 78.333,305.250 78.333 C 305.387 78.333,305.500 78.398,305.500 78.477 C 305.500 78.969,307.601 80.338,308.209 80.242 C 308.370 80.217,308.459 80.264,308.408 80.348 C 308.352 80.438,310.314 80.500,313.240 80.500 L 318.167 80.500 318.167 49.435 L 318.167 18.369 317.748 18.264 C 317.518 18.207,314.553 18.164,311.160 18.171 L 304.990 18.182 305.037 37.570 L 305.083 56.959 304.708 56.554 C 304.502 56.332,304.333 56.095,304.333 56.029 C 304.333 55.924,304.024 55.538,303.108 54.500 C 302.987 54.362,302.838 54.114,302.778 53.948 C 302.718 53.782,302.593 53.692,302.501 53.749 C 302.409 53.806,302.333 53.740,302.333 53.601 C 302.333 53.463,302.202 53.273,302.042 53.180 C 301.881 53.087,301.806 53.008,301.874 53.005 C 301.991 53.000,301.573 52.449,300.987 51.834 C 300.843 51.682,300.676 51.432,300.617 51.279 C 300.559 51.126,300.433 51.000,300.339 51.000 C 300.244 51.000,300.167 50.885,300.167 50.745 C 300.167 50.604,300.051 50.445,299.911 50.391 C 299.770 50.337,299.541 50.075,299.403 49.808 C 299.265 49.541,299.094 49.358,299.023 49.402 C 298.952 49.446,298.800 49.224,298.686 48.908 C 298.572 48.592,298.376 48.333,298.250 48.333 C 298.125 48.333,297.979 48.202,297.925 48.042 C 297.839 47.785,297.458 47.302,296.379 46.083 C 296.216 45.899,295.978 45.545,295.850 45.297 C 295.721 45.048,295.561 44.879,295.493 44.921 C 295.425 44.963,295.323 44.813,295.266 44.587 C 295.209 44.361,295.014 44.096,294.831 43.999 C 294.649 43.901,294.500 43.712,294.500 43.577 C 294.500 43.443,294.383 43.333,294.240 43.333 C 294.097 43.333,294.027 43.258,294.083 43.167 C 294.140 43.075,294.105 43.000,294.006 43.000 C 293.906 43.000,293.752 42.808,293.663 42.573 C 293.564 42.314,293.425 42.193,293.308 42.266 C 293.197 42.334,293.160 42.312,293.220 42.215 C 293.278 42.121,293.179 41.912,293.000 41.750 C 292.821 41.588,292.715 41.390,292.764 41.311 C 292.813 41.232,292.736 41.167,292.593 41.167 C 292.450 41.167,292.333 41.054,292.333 40.917 C 292.333 40.779,292.246 40.667,292.139 40.667 C 292.032 40.667,291.987 40.624,292.039 40.572 C 292.091 40.521,291.841 40.164,291.484 39.781 C 291.127 39.397,290.792 38.952,290.740 38.792 C 290.687 38.631,290.532 38.500,290.396 38.500 C 290.259 38.500,290.193 38.425,290.250 38.334 C 290.306 38.243,290.142 37.971,289.884 37.731 C 289.627 37.490,289.435 37.229,289.457 37.152 C 289.479 37.074,289.347 36.930,289.165 36.832 C 288.983 36.735,288.833 36.562,288.833 36.448 C 288.833 36.334,288.702 36.124,288.542 35.981 C 288.161 35.641,287.655 35.028,287.293 34.466 C 287.133 34.218,286.683 33.697,286.293 33.308 C 285.903 32.920,285.696 32.659,285.833 32.730 C 285.977 32.804,285.960 32.757,285.792 32.619 C 285.631 32.487,285.500 32.294,285.500 32.190 C 285.500 32.085,285.425 32.000,285.333 32.000 C 285.242 32.000,285.167 31.890,285.167 31.756 C 285.167 31.622,285.017 31.431,284.833 31.333 C 284.650 31.235,284.500 31.048,284.500 30.917 C 284.500 30.786,284.350 30.598,284.167 30.500 C 283.983 30.402,283.833 30.212,283.833 30.077 C 283.833 29.943,283.775 29.833,283.703 29.833 C 283.632 29.833,283.278 29.426,282.918 28.929 C 282.557 28.431,282.216 28.053,282.159 28.088 C 282.102 28.124,281.930 27.891,281.778 27.571 C 281.625 27.251,281.388 26.947,281.250 26.894 C 281.113 26.841,281.000 26.691,281.000 26.560 C 281.000 26.430,280.887 26.280,280.750 26.227 C 280.612 26.174,280.500 26.065,280.500 25.983 C 280.500 25.847,280.055 25.272,279.530 24.728 C 279.409 24.603,279.371 24.498,279.446 24.495 C 279.522 24.492,279.452 24.413,279.292 24.320 C 279.131 24.227,279.000 24.040,279.000 23.905 C 279.000 23.770,278.813 23.574,278.583 23.470 C 278.354 23.365,278.167 23.142,278.167 22.973 C 278.167 22.805,278.050 22.667,277.907 22.667 C 277.764 22.667,277.688 22.600,277.739 22.517 C 277.790 22.435,277.719 22.325,277.582 22.273 C 277.445 22.220,277.333 22.081,277.332 21.964 C 277.331 21.846,276.882 21.262,276.333 20.667 C 275.785 20.071,275.335 19.523,275.335 19.448 C 275.334 19.374,275.262 19.358,275.175 19.411 C 275.088 19.465,274.942 19.370,274.852 19.201 C 274.642 18.808,273.621 18.500,272.532 18.500 C 272.067 18.500,271.640 18.425,271.583 18.333 C 271.469 18.148,263.963 18.093,263.780 18.276 M380.208 18.277 C 380.043 18.344,380.000 24.731,380.000 49.431 L 380.000 80.500 387.417 80.500 L 394.833 80.500 394.828 49.625 C 394.824 24.216,394.784 18.698,394.601 18.458 C 394.386 18.175,380.883 18.005,380.208 18.277 M323.667 24.249 L 323.667 30.000 332.333 30.000 L 341.000 30.000 341.000 55.250 L 341.000 80.500 348.333 80.500 L 355.667 80.500 355.667 55.251 L 355.667 30.003 364.375 29.960 L 373.083 29.917 373.083 24.250 L 373.083 18.583 348.375 18.541 L 323.667 18.499 323.667 24.249 M227.914 33.182 C 227.880 33.357,227.909 33.500,227.978 33.500 C 228.047 33.500,228.200 33.894,228.317 34.375 C 228.642 35.706,229.311 37.690,229.623 38.250 C 229.776 38.525,229.883 38.769,229.860 38.793 C 229.756 38.902,230.052 39.988,230.166 39.917 C 230.238 39.873,230.347 40.175,230.409 40.588 C 230.471 41.002,230.581 41.303,230.654 41.258 C 230.727 41.213,230.766 41.361,230.741 41.588 C 230.716 41.815,230.757 42.000,230.831 42.000 C 230.906 42.000,231.059 42.394,231.172 42.875 C 231.285 43.356,231.440 43.830,231.517 43.928 C 231.594 44.026,231.744 44.513,231.850 45.011 C 231.956 45.509,232.094 45.954,232.156 46.000 C 232.219 46.046,232.405 46.590,232.570 47.208 C 232.735 47.827,232.927 48.333,232.996 48.333 C 233.065 48.333,233.217 48.783,233.333 49.333 C 233.450 49.883,233.600 50.333,233.667 50.333 C 233.733 50.333,233.883 50.783,234.000 51.333 C 234.117 51.883,234.274 52.333,234.350 52.333 C 234.425 52.333,234.579 52.779,234.692 53.324 C 234.804 53.869,234.957 54.277,235.031 54.231 C 235.106 54.185,235.168 54.283,235.169 54.448 C 235.172 54.797,235.551 55.940,235.719 56.108 C 235.782 56.171,235.833 56.285,235.833 56.361 C 235.833 56.437,232.158 56.500,227.667 56.500 C 219.694 56.500,219.500 56.492,219.500 56.177 C 219.500 55.999,219.569 55.810,219.654 55.758 C 219.738 55.706,219.859 55.420,219.923 55.123 C 219.986 54.826,220.172 54.283,220.336 53.917 C 220.501 53.550,220.675 52.995,220.724 52.683 C 220.772 52.371,220.891 52.068,220.986 52.008 C 221.082 51.949,221.128 51.734,221.089 51.529 C 221.049 51.322,221.087 51.201,221.175 51.255 C 221.262 51.309,221.333 51.235,221.333 51.091 C 221.333 50.679,221.734 49.500,221.874 49.500 C 221.943 49.500,222.001 49.331,222.003 49.125 C 222.005 48.919,222.230 48.116,222.503 47.341 C 222.776 46.567,223.000 45.793,223.000 45.623 C 223.000 45.431,223.073 45.359,223.193 45.433 C 223.323 45.513,223.357 45.443,223.298 45.218 C 223.250 45.034,223.311 44.704,223.433 44.484 C 223.555 44.263,223.658 43.915,223.661 43.708 C 223.664 43.502,223.754 43.333,223.861 43.333 C 223.968 43.333,224.006 43.284,223.946 43.224 C 223.886 43.163,223.901 43.032,223.979 42.932 C 224.058 42.832,224.368 41.962,224.669 41.000 C 224.970 40.037,225.265 39.212,225.326 39.167 C 225.387 39.121,225.537 38.652,225.661 38.125 C 225.785 37.598,225.944 37.167,226.015 37.167 C 226.085 37.167,226.229 36.754,226.333 36.250 C 226.438 35.746,226.583 35.333,226.656 35.333 C 226.778 35.333,227.222 33.558,227.222 33.067 C 227.222 32.947,227.285 32.887,227.361 32.934 C 227.438 32.981,227.502 32.846,227.505 32.635 C 227.510 32.270,227.523 32.266,227.743 32.557 C 227.871 32.725,227.948 33.006,227.914 33.182 M57.667 51.103 C 57.667 60.678,57.636 62.000,57.417 62.000 C 57.279 62.000,57.167 61.935,57.167 61.855 C 57.167 61.775,56.717 61.622,56.167 61.513 C 55.617 61.405,55.167 61.260,55.167 61.192 C 55.167 61.123,54.717 60.974,54.167 60.860 C 53.617 60.747,53.167 60.594,53.167 60.521 C 53.167 60.448,53.073 60.382,52.958 60.374 C 52.844 60.367,52.600 60.319,52.417 60.268 C 52.233 60.217,51.749 60.095,51.340 59.996 C 50.931 59.897,50.488 59.726,50.356 59.616 C 50.224 59.506,50.108 59.440,50.099 59.469 C 50.091 59.498,49.971 59.485,49.833 59.440 C 49.696 59.395,49.283 59.260,48.917 59.140 C 48.550 59.020,48.175 58.913,48.083 58.903 C 47.992 58.893,47.706 58.799,47.447 58.693 C 47.189 58.587,46.871 58.500,46.739 58.500 C 46.608 58.500,46.500 58.433,46.500 58.351 C 46.500 58.270,46.016 58.107,45.425 57.989 C 44.833 57.872,44.382 57.723,44.421 57.660 C 44.460 57.596,44.042 57.448,43.491 57.332 C 42.941 57.215,42.450 57.054,42.400 56.973 C 42.351 56.893,42.244 56.869,42.162 56.920 C 42.080 56.970,41.879 56.938,41.715 56.849 C 41.275 56.608,38.404 55.667,38.112 55.667 C 37.974 55.667,37.836 55.591,37.805 55.499 C 37.774 55.407,37.281 55.249,36.708 55.148 C 36.135 55.047,35.667 54.909,35.667 54.842 C 35.667 54.716,33.857 54.244,33.613 54.306 C 33.537 54.326,33.516 54.276,33.565 54.196 C 33.615 54.116,33.226 53.950,32.703 53.828 C 32.179 53.705,31.600 53.513,31.417 53.401 C 31.233 53.290,30.652 53.104,30.125 52.989 C 29.598 52.874,29.167 52.730,29.167 52.668 C 29.167 52.606,29.073 52.547,28.958 52.538 C 28.844 52.528,28.637 52.487,28.500 52.448 C 28.363 52.408,28.006 52.319,27.708 52.250 C 27.410 52.181,27.167 52.064,27.167 51.989 C 27.167 51.914,27.018 51.881,26.837 51.916 C 26.655 51.951,26.464 51.909,26.410 51.823 C 26.357 51.737,26.169 51.667,25.991 51.667 C 25.514 51.667,24.333 51.118,24.333 50.895 C 24.333 50.790,24.870 50.582,25.526 50.433 C 26.182 50.285,26.816 50.084,26.934 49.986 C 27.052 49.887,27.397 49.770,27.700 49.724 C 28.002 49.678,28.421 49.531,28.630 49.397 C 28.839 49.263,29.080 49.197,29.167 49.250 C 29.253 49.303,29.529 49.213,29.780 49.049 C 30.030 48.884,30.257 48.769,30.284 48.792 C 30.431 48.916,31.006 48.803,31.196 48.613 C 31.318 48.492,31.475 48.388,31.546 48.382 C 31.618 48.376,32.030 48.275,32.463 48.158 C 32.896 48.042,33.306 47.958,33.375 47.973 C 33.444 47.988,33.500 47.934,33.500 47.852 C 33.500 47.771,33.837 47.654,34.250 47.592 C 34.662 47.530,35.000 47.422,35.000 47.351 C 35.000 47.280,35.094 47.212,35.208 47.200 C 35.716 47.145,37.588 46.595,37.633 46.488 C 37.660 46.422,37.829 46.407,38.008 46.454 C 38.187 46.501,38.333 46.464,38.333 46.374 C 38.333 46.283,38.783 46.108,39.333 45.986 C 39.883 45.864,40.333 45.713,40.333 45.650 C 40.333 45.531,40.906 45.355,41.750 45.216 C 42.025 45.171,42.287 45.079,42.333 45.013 C 42.379 44.946,42.792 44.792,43.250 44.670 C 43.708 44.548,44.158 44.395,44.250 44.329 C 44.342 44.264,44.698 44.159,45.042 44.098 C 45.385 44.036,45.667 43.920,45.667 43.841 C 45.667 43.762,45.817 43.737,46.000 43.785 C 46.183 43.833,46.333 43.795,46.333 43.701 C 46.333 43.606,46.652 43.476,47.042 43.412 C 47.431 43.347,47.900 43.213,48.083 43.112 C 48.267 43.012,48.518 42.951,48.642 42.976 C 48.766 43.002,48.827 42.958,48.779 42.880 C 48.731 42.802,49.190 42.643,49.799 42.528 C 50.408 42.412,50.947 42.253,50.995 42.174 C 51.044 42.095,51.366 41.978,51.711 41.913 C 52.055 41.848,52.376 41.732,52.424 41.655 C 52.472 41.578,52.621 41.557,52.755 41.608 C 52.890 41.660,53.000 41.628,53.000 41.536 C 53.000 41.445,53.281 41.318,53.625 41.255 C 53.969 41.191,54.488 41.027,54.779 40.890 C 55.070 40.753,55.445 40.615,55.612 40.583 C 55.780 40.551,55.954 40.511,56.000 40.494 C 56.159 40.433,56.418 40.384,56.718 40.359 C 56.884 40.345,56.980 40.269,56.932 40.191 C 56.883 40.112,57.029 40.084,57.255 40.127 L 57.667 40.206 57.667 51.103 M68.417 40.392 C 69.167 40.529,69.730 40.699,69.922 40.848 C 70.086 40.974,70.531 41.094,71.542 41.285 C 71.794 41.332,72.000 41.432,72.000 41.507 C 72.000 41.582,72.412 41.735,72.917 41.848 C 73.421 41.961,73.833 42.115,73.833 42.191 C 73.833 42.267,74.002 42.322,74.208 42.313 C 74.415 42.304,75.389 42.567,76.373 42.898 C 77.357 43.229,78.276 43.500,78.414 43.500 C 78.553 43.500,78.667 43.559,78.667 43.632 C 78.667 43.780,79.993 44.167,80.502 44.167 C 80.684 44.167,80.833 44.232,80.833 44.312 C 80.833 44.391,81.190 44.555,81.625 44.674 C 82.060 44.794,82.454 44.946,82.500 45.013 C 82.546 45.079,82.808 45.171,83.083 45.216 C 83.358 45.261,83.921 45.425,84.333 45.580 C 84.746 45.735,85.421 45.945,85.833 46.047 C 86.246 46.149,86.621 46.285,86.667 46.350 C 86.712 46.414,86.975 46.505,87.250 46.551 C 88.107 46.695,89.333 47.064,89.333 47.178 C 89.333 47.239,89.783 47.383,90.333 47.500 C 90.883 47.617,91.333 47.777,91.333 47.856 C 91.333 47.935,91.390 47.986,91.458 47.970 C 91.657 47.922,93.059 48.373,93.324 48.571 C 93.514 48.713,93.533 48.698,93.417 48.500 C 93.287 48.280,93.305 48.279,93.568 48.493 C 93.732 48.626,93.953 48.753,94.058 48.775 C 94.751 48.916,95.017 48.997,95.316 49.157 C 95.501 49.257,95.712 49.321,95.785 49.300 C 95.857 49.279,96.067 49.346,96.250 49.448 C 96.433 49.550,96.880 49.680,97.243 49.738 C 97.606 49.795,97.943 49.897,97.993 49.963 C 98.088 50.089,98.146 50.108,99.292 50.385 C 99.681 50.479,100.000 50.619,100.000 50.695 C 100.000 50.771,100.206 50.838,100.458 50.843 C 101.100 50.856,99.535 51.606,98.542 51.761 C 98.152 51.821,97.833 51.924,97.833 51.989 C 97.833 52.117,96.162 52.609,95.958 52.542 C 95.890 52.519,95.833 52.568,95.833 52.652 C 95.833 52.736,95.515 52.856,95.125 52.920 C 94.735 52.984,94.273 53.159,94.096 53.310 C 93.920 53.460,93.831 53.490,93.898 53.375 C 93.965 53.260,93.946 53.167,93.857 53.167 C 93.768 53.167,93.669 53.242,93.638 53.335 C 93.607 53.428,93.395 53.540,93.166 53.584 C 92.937 53.629,92.507 53.711,92.210 53.768 C 91.913 53.824,91.707 53.930,91.752 54.003 C 91.797 54.076,91.676 54.094,91.483 54.044 C 91.290 53.993,91.084 54.023,91.025 54.109 C 90.912 54.274,89.508 54.750,89.292 54.697 C 89.223 54.680,89.167 54.738,89.167 54.825 C 89.167 54.912,88.718 55.071,88.170 55.179 C 87.622 55.287,87.205 55.427,87.244 55.490 C 87.282 55.553,86.878 55.694,86.345 55.804 C 85.812 55.914,85.156 56.114,84.887 56.248 C 84.618 56.382,84.252 56.515,84.074 56.543 C 83.896 56.570,83.651 56.655,83.531 56.730 C 83.410 56.805,83.266 56.822,83.211 56.766 C 83.156 56.711,82.965 56.797,82.788 56.958 C 82.610 57.119,82.434 57.226,82.396 57.196 C 82.278 57.102,81.274 57.347,80.687 57.614 C 80.378 57.754,79.890 57.905,79.604 57.949 C 79.318 57.993,78.858 58.130,78.583 58.254 C 78.308 58.378,77.746 58.574,77.333 58.690 C 76.921 58.806,76.546 58.946,76.500 59.002 C 76.454 59.057,75.985 59.204,75.458 59.328 C 74.931 59.452,74.500 59.609,74.500 59.678 C 74.500 59.746,74.350 59.763,74.167 59.715 C 73.983 59.667,73.833 59.703,73.833 59.795 C 73.833 59.887,73.627 60.001,73.375 60.049 C 72.352 60.241,71.919 60.360,71.755 60.491 C 71.661 60.567,71.152 60.725,70.625 60.841 C 70.098 60.958,69.667 61.106,69.667 61.170 C 69.667 61.235,69.218 61.383,68.670 61.499 C 68.122 61.615,67.714 61.776,67.764 61.855 C 67.813 61.935,67.774 62.000,67.677 62.000 C 67.478 62.000,67.416 40.307,67.614 40.109 C 67.676 40.046,67.770 40.064,67.822 40.148 C 67.874 40.232,68.142 40.342,68.417 40.392 " stroke="none" fill="#6D1300" fill-rule="evenodd"></path><path id="path1" d="M166.643 18.315 C 166.850 18.447,167.500 18.382,167.500 18.231 C 167.500 18.195,167.256 18.168,166.958 18.169 C 166.590 18.171,166.489 18.218,166.643 18.315 M106.708 23.784 C 106.502 23.824,106.333 23.919,106.333 23.996 C 106.333 24.168,106.971 24.015,107.096 23.813 C 107.146 23.733,107.163 23.677,107.135 23.689 C 107.107 23.702,106.915 23.745,106.708 23.784 M173.542 29.956 C 174.069 29.990,174.931 29.990,175.458 29.956 C 175.985 29.923,175.554 29.896,174.500 29.896 C 173.446 29.896,173.015 29.923,173.542 29.956 M340.915 55.250 C 340.915 69.183,340.934 74.859,340.958 67.862 C 340.982 60.865,340.982 49.465,340.958 42.529 C 340.934 35.592,340.915 41.317,340.915 55.250 M241.406 35.062 C 241.450 35.325,241.526 35.582,241.576 35.632 C 241.739 35.794,241.666 35.090,241.494 34.833 C 241.368 34.646,241.346 34.703,241.406 35.062 M276.580 63.250 C 276.580 72.783,276.600 76.659,276.625 71.862 C 276.650 67.066,276.650 59.266,276.625 54.529 C 276.600 49.792,276.580 53.717,276.580 63.250 M208.913 46.846 C 208.752 47.352,208.914 47.404,209.136 46.917 C 209.241 46.688,209.258 46.500,209.174 46.500 C 209.091 46.500,208.973 46.656,208.913 46.846 M141.693 49.458 C 141.679 50.398,141.723 51.167,141.792 51.167 C 141.860 51.167,141.896 50.623,141.871 49.959 C 141.793 47.883,141.721 47.681,141.693 49.458 M205.386 56.125 C 205.329 56.285,205.250 56.492,205.212 56.583 C 205.173 56.675,205.260 56.604,205.404 56.426 C 205.666 56.103,205.745 55.833,205.578 55.833 C 205.529 55.833,205.443 55.965,205.386 56.125 M50.417 59.629 C 50.508 59.721,50.771 59.850,51.000 59.917 C 51.278 59.997,51.361 59.982,51.250 59.871 C 51.158 59.779,50.896 59.650,50.667 59.583 C 50.389 59.503,50.306 59.518,50.417 59.629 M120.772 89.708 L 120.472 90.250 120.816 89.833 C 121.120 89.464,121.256 89.167,121.119 89.167 C 121.093 89.167,120.937 89.410,120.772 89.708 " stroke="none" fill="#6D1300" fill-rule="evenodd"></path></g></svg>