<svg id="svg" xmlns="http://www.w3.org/2000/svg" xmlns:xlink="http://www.w3.org/1999/xlink" width="400" height="400" viewBox="0, 0, 400,400"><g id="svgg"><path id="path0" d="M174.609 1.194 C 43.993 18.212,-35.173 154.230,14.565 276.172 C 44.224 348.885,118.404 399.980,194.336 399.998 L 203.906 400.000 203.906 321.875 L 203.906 243.750 182.422 243.750 L 160.938 243.750 160.938 219.141 L 160.938 194.531 182.422 194.531 L 203.906 194.531 203.911 172.852 C 203.920 130.257,210.532 113.670,232.889 100.156 C 245.629 92.455,280.696 89.130,303.686 93.443 L 306.250 93.924 306.250 115.638 L 306.250 137.352 288.477 137.681 C 265.386 138.109,261.636 139.381,257.275 148.261 L 255.078 152.734 254.817 173.633 L 254.555 194.531 279.445 194.531 L 304.335 194.531 301.195 219.141 L 298.056 243.750 276.372 243.750 L 254.688 243.750 254.688 318.317 L 254.688 392.885 258.789 391.680 C 349.966 364.906,410.539 271.562,398.890 175.781 C 385.512 65.783,284.196 -13.085,174.609 1.194 " stroke="none" fill="#FFFFFF" fill-rule="evenodd"></path></g></svg>