<svg id="svg" xmlns="http://www.w3.org/2000/svg" xmlns:xlink="http://www.w3.org/1999/xlink" width="400" height="400" viewBox="0, 0, 400,400"><g id="svgg"><path id="path0" d="M174.609 1.194 C 8.750 22.804,-59.514 227.069,60.256 343.370 C 173.155 452.998,362.812 395.808,395.987 242.132 C 424.984 107.814,310.724 -16.541,174.609 1.194 M238.024 113.663 C 318.583 115.300,322.720 119.018,323.983 190.930 C 325.218 261.281,318.754 278.935,290.206 283.180 C 257.296 288.073,144.188 288.092,110.883 283.210 C 82.194 279.005,75.781 263.802,75.781 200.000 C 75.781 137.369,82.382 121.031,109.375 116.843 C 124.807 114.449,178.412 112.356,207.422 113.015 C 213.438 113.152,227.208 113.443,238.024 113.663 M175.000 200.000 C 175.000 220.625,175.234 237.500,175.520 237.500 C 176.304 237.500,240.601 200.451,240.601 200.000 C 240.601 199.549,176.304 162.500,175.520 162.500 C 175.234 162.500,175.000 179.375,175.000 200.000 " stroke="none" fill="#FFFFFF" fill-rule="evenodd"></path></g></svg>